<svg id="intro-icon4" xmlns="http://www.w3.org/2000/svg" width="71" height="71" viewBox="0 0 71 71">
  <path id="Path_29054" data-name="Path 29054" d="M36.332,4.035c-1.872,2.219-3.55,4.174-3.744,4.327S29.981,9.6,27.221,10.733L22.215,12.8l1.109,1.817c.624,1,1.692,2.76,2.4,3.9L27,20.607,25.64,22.021c-4.049,4.23-5.935,8.362-5.949,12.993a16.9,16.9,0,0,0,7.474,14.2l1.04.707H23.172l-.153.721c-.1.4-.79,3.73-1.567,7.391L20.038,64.69l-1.137.042-1.151.042V71h20.8V68.92H19.83V66.84H48.951v2.08h-4.16V71h6.24V64.774l-1.137-.042-1.151-.042-1.553-7.35c-.86-4.049-1.553-7.364-1.567-7.391s-1.206-.028-2.69-.028h-2.69l-.416-.652a17.633,17.633,0,0,1-1.775-3.994c-.361-1.165-.388-1.415-.388-3.883a12.075,12.075,0,0,1,.291-3.7,16.6,16.6,0,0,1,2.829-5.741l.541-.707L45.9,32.352c2.51.61,4.6,1.082,4.646,1.04s.264-2.538.5-5.561l.416-5.505,2.912-4.743c1.595-2.607,2.857-4.77,2.8-4.826S54.8,11.732,52.03,10.594L46.982,8.528,43.377,4.257C41.394,1.914,39.757,0,39.743,0S38.2,1.817,36.332,4.035ZM42.78,6.781l2.912,3.467,4.271,1.761c2.343.971,4.257,1.775,4.257,1.8s-1.082,1.8-2.4,3.966L49.409,21.7,49.1,26c-.166,2.357-.333,4.424-.361,4.59-.069.277-.18.264-4.507-.79l-4.451-1.082L35.32,29.8c-2.454.6-4.479,1.04-4.493,1s-.194-2.122-.388-4.618l-.347-4.535-2.357-3.841c-1.29-2.108-2.357-3.883-2.357-3.938,0-.125.555-.361,5.311-2.3l3.037-1.234,2.968-3.508c1.636-1.914,3.023-3.495,3.078-3.495S41.186,4.881,42.78,6.781ZM28.608,32.338a19.755,19.755,0,0,0-.485,6.559c.1.68.1.693.582.68a7.672,7.672,0,0,0,.971-.1l.485-.1L30.175,37a17.2,17.2,0,0,1,.208-3.148l.194-.763,3.883-.943c2.136-.513,3.966-.929,4.049-.9.125.014.028.25-.25.652a18.358,18.358,0,0,0-2.552,6.434,22.482,22.482,0,0,0,0,5.949,17.785,17.785,0,0,0,1.442,4.451,7.53,7.53,0,0,1,.458,1.054,22.228,22.228,0,0,1-2.565-1.844,16.357,16.357,0,0,1-4.119-6.1c-.1-.291-.236-.5-.333-.472s-.513.18-.943.319-.8.319-.8.4a15.994,15.994,0,0,0,1.317,3.051,17.854,17.854,0,0,0,2.7,3.578c1.1,1.151,1.1,1.151-.763.624a14.464,14.464,0,0,1-8.889-8A15.483,15.483,0,0,1,22.4,30.854,14.8,14.8,0,0,1,26.514,24.2l1.567-1.636.361,4.562C28.747,31.063,28.76,31.77,28.608,32.338Zm15.42,20.107c.166.693,2.565,12.092,2.565,12.2a9.044,9.044,0,0,1-1.941.111H42.711V58.381H26.07V64.76H24.129a12.006,12.006,0,0,1-1.941-.083c0-.083,2.385-11.427,2.565-12.231l.069-.305H43.959Zm-3.4,10.165V64.76H28.15v-4.3H40.631Z" fill="#f3f3f3"/>
  <path id="Path_29055" data-name="Path 29055" d="M30.23,14.491v1.04h2.219v-2.08H30.23Z" fill="#f3f3f3"/>
  <path id="Path_29056" data-name="Path 29056" d="M34.391,14.491v1.04h2.219v-2.08H34.391Z" fill="#f3f3f3"/>
  <path id="Path_29057" data-name="Path 29057" d="M26.07,55.261V56.3h2.08v-2.08H26.07Z" fill="#f3f3f3"/>
  <path id="Path_29058" data-name="Path 29058" d="M30.23,55.261V56.3h2.08v-2.08H30.23Z" fill="#f3f3f3"/>
  <path id="Path_29059" data-name="Path 29059" d="M0,32.241v1.04H2.08V31.2H0Z" fill="#f3f3f3"/>
  <path id="Path_29060" data-name="Path 29060" d="M68.92,32.311V33.42H71V31.2H68.92Z" fill="#f3f3f3"/>
  <path id="Path_29061" data-name="Path 29061" d="M6.518,36.54v1.04H4.438v2.08h2.08v2.08H8.6V39.66h2.08V37.594l-1-.042-1.012-.042L8.625,36.5l-.042-1H6.518Z" fill="#f3f3f3"/>
  <path id="Path_29062" data-name="Path 29062" d="M62.541,36.54v1.04h-2.08v2.08h2.08v2.08h2.08V39.66H66.7V37.58h-2.08V35.5h-2.08Z" fill="#f3f3f3"/>
  <path id="Path_29063" data-name="Path 29063" d="M0,44.722v1.04H2.08v-2.08H0Z" fill="#f3f3f3"/>
  <path id="Path_29064" data-name="Path 29064" d="M68.92,44.86V45.9H71V43.82H68.92Z" fill="#f3f3f3"/>
  <path id="Path_29065" data-name="Path 29065" d="M40.631,69.96V71h2.08V68.92h-2.08Z" fill="#f3f3f3"/>
</svg>
