<svg id="intro-icon3" xmlns="http://www.w3.org/2000/svg" xmlns:xlink="http://www.w3.org/1999/xlink" width="60" height="60" viewBox="0 0 60 60">
  <defs>
    <clipPath id="clip-path">
      <rect id="Rectangle_17491" data-name="Rectangle 17491" width="60" height="60" transform="translate(0 0.38)" fill="#f3f3f3"/>
    </clipPath>
  </defs>
  <g id="intro-icon3-2" data-name="intro-icon3" transform="translate(0 -0.38)" clip-path="url(#clip-path)">
    <path id="Path_29051" data-name="Path 29051" d="M9.022.18A3,3,0,0,0,7.076,3.152v.861H5.8a6.505,6.505,0,0,0-3.113.6A5.86,5.86,0,0,0,.672,6.584C-.035,7.881,0,6.725,0,28.189c0,21.168-.024,20.26.59,21.475a5.258,5.258,0,0,0,3.3,2.512,31.54,31.54,0,0,0,5.519.189h4.705l1,1.156a20,20,0,0,0,30.154-.012l.991-1.144h4.729c6,0,6.427-.083,7.866-1.521A4.561,4.561,0,0,0,60.2,48.508c.271-1.014.271-39.624,0-40.638a4.63,4.63,0,0,0-1.25-2.264,5.357,5.357,0,0,0-4.375-1.592H53.3V3.152A2.731,2.731,0,0,0,53,1.678,2.974,2.974,0,0,0,48.162.971a2.846,2.846,0,0,0-.849,2.123l-.059.92H43.316l-.059-.92A2.846,2.846,0,0,0,42.408.971a2.968,2.968,0,0,0-4.835.708,2.707,2.707,0,0,0-.307,1.474v.861H33.292l-.071-.884a3.03,3.03,0,0,0-1.6-2.748A2.2,2.2,0,0,0,30.19.062a2.2,2.2,0,0,0-1.427.318,3.03,3.03,0,0,0-1.6,2.748l-.071.884H23.114V3.152a2.731,2.731,0,0,0-.307-1.474,2.962,2.962,0,0,0-4.741-.8,2.9,2.9,0,0,0-.943,2.217l-.059.92H13.126l-.059-.92A3.039,3.039,0,0,0,11.38.334,3.462,3.462,0,0,0,9.022.18Zm1.722,2.17.342.342V4.957c0,2.276-.047,2.594-.46,2.913a1.042,1.042,0,0,1-1.25-.142c-.295-.283-.295-.295-.295-2.677.012-2.488.035-2.618.531-2.9A.875.875,0,0,1,10.744,2.35Zm9.812-.2c.519.271.542.4.554,2.9,0,2.382,0,2.394-.295,2.677a1.042,1.042,0,0,1-1.25.142c-.413-.318-.46-.637-.46-2.913V2.692l.342-.342A.828.828,0,0,1,20.555,2.15Zm10.283.142c.389.389.436.8.389,3.137l-.035,2.028-.33.283a.94.94,0,0,1-1.344,0l-.33-.283-.035-2.028a21.974,21.974,0,0,1,.035-2.441,1.133,1.133,0,0,1,1-.979A.955.955,0,0,1,30.839,2.291Zm10.095.059.342.342V4.957c0,2.276-.047,2.594-.46,2.913a1.042,1.042,0,0,1-1.25-.142c-.295-.283-.295-.295-.295-2.677.012-2.488.035-2.618.531-2.9A.875.875,0,0,1,40.933,2.35Zm9.812-.2c.519.271.542.4.554,2.9,0,2.382,0,2.394-.295,2.677a1.042,1.042,0,0,1-1.25.142c-.413-.318-.46-.637-.46-2.913V2.692l.342-.342A.828.828,0,0,1,50.745,2.15ZM7.076,6.867a2.936,2.936,0,0,0,3.019,3.16c1.781,0,3-1.356,3-3.349v-.66H17.1V6.7a3.026,3.026,0,0,0,3,3.326,2.936,2.936,0,0,0,3.019-3.16V6.018h3.974l.071.849a3.065,3.065,0,0,0,1.026,2.37,2.958,2.958,0,0,0,4.057-.012,3.266,3.266,0,0,0,.979-2.335l.071-.873h3.974v.849a2.936,2.936,0,0,0,3.019,3.16c1.781,0,3-1.356,3-3.349v-.66h4.01V6.7a3.026,3.026,0,0,0,3,3.326A2.936,2.936,0,0,0,53.3,6.867V6.018H54.46a3.935,3.935,0,0,1,2.866.79c.873.79.979,1.132,1.026,3.3l.047,1.922H1.981l.047-1.922c.035-1.686.071-1.969.295-2.382.66-1.226,1.639-1.7,3.55-1.71h1.2ZM58.352,30.9c.024,18.621.083,17.406-.743,18.373a3.622,3.622,0,0,1-.979.755c-.542.271-.625.271-4.764.307-2.323.024-4.222.012-4.222-.024s.259-.578.578-1.215a19.9,19.9,0,0,0,1.026-15.3,20.17,20.17,0,0,0-15.59-13.409,22.785,22.785,0,0,0-6.934,0A20.137,20.137,0,0,0,11.145,46.668a21.722,21.722,0,0,0,1,2.417c.33.649.59,1.2.59,1.226s-1.9.047-4.21.024C4.375,50.3,4.293,50.3,3.75,50.029a3.566,3.566,0,0,1-.967-.755c-.826-.967-.778.259-.778-18.314,0-9.222.035-16.8.083-16.84s12.713-.071,28.15-.059l28.079.035ZM33.869,22.516a19.157,19.157,0,0,1,6.462,2.736A21.5,21.5,0,0,1,45.2,30.134a18.106,18.106,0,0,1-1.226,21.84A18.348,18.348,0,0,1,33.61,58.036a21.388,21.388,0,0,1-6.6.059,18.259,18.259,0,0,1-11.864-7.8,18.054,18.054,0,0,1,.035-20.166,23.44,23.44,0,0,1,4.4-4.564,18.855,18.855,0,0,1,7.842-3.22A24.618,24.618,0,0,1,33.869,22.516Z" transform="translate(0 -0.003)" fill="#f3f3f3"/>
    <path id="Path_29052" data-name="Path 29052" d="M29.888,28.658a15.788,15.788,0,0,0-8.6,4.54,14.674,14.674,0,0,0-3.066,4.257A16.129,16.129,0,0,0,29.523,60.3a19.138,19.138,0,0,0,6.026.059A16.1,16.1,0,0,0,37.8,29.271a13.941,13.941,0,0,0-4.776-.79A13.218,13.218,0,0,0,29.888,28.658Zm4.741,1.91a13.7,13.7,0,0,1,4.257,1.344,14.015,14.015,0,0,1,7.43,9.1,17.723,17.723,0,0,1,.271,5.6A14.315,14.315,0,0,1,41.575,55.4,14.011,14.011,0,0,1,28.19,57.857,14.239,14.239,0,0,1,18.8,46.972a17.147,17.147,0,0,1,.224-5.955,14.391,14.391,0,0,1,5.165-7.748,15.639,15.639,0,0,1,6.415-2.7A18.338,18.338,0,0,1,34.629,30.568Z" transform="translate(-2.482 -4.258)" fill="#f3f3f3"/>
    <path id="Path_29053" data-name="Path 29053" d="M38.089,36.972a3.785,3.785,0,0,0-.554.436c-.106.118-1.5,2.217-3.1,4.646s-2.936,4.446-2.96,4.47a5.146,5.146,0,0,1-1.026-.9c-1.132-1.12-1.3-1.215-2.052-1.215-.79.012-1.215.283-2.241,1.427a4.358,4.358,0,0,0-1.333,2.17c0,.837.212,1.132,2.748,3.691a32.668,32.668,0,0,0,2.96,2.76,3.211,3.211,0,0,0,3.479-.472c.5-.46,8.361-12.312,8.762-13.22a1.975,1.975,0,0,0-.177-1.922,8.784,8.784,0,0,0-1.533-1.25c-1.2-.814-1.3-.849-1.946-.849A1.893,1.893,0,0,0,38.089,36.972Zm2.276,2.583.613.413-.189.307c-3.738,5.79-8.113,12.265-8.361,12.371-.719.33-.8.271-3.267-2.193l-2.335-2.323.778-.861.79-.861,1.38,1.356c1.156,1.144,1.439,1.368,1.745,1.368a2.19,2.19,0,0,0,.554-.071c.106-.047,1.734-2.382,3.609-5.2l3.42-5.13.318.212C39.6,39.059,40.023,39.331,40.365,39.555Z" transform="translate(-3.713 -5.497)" fill="#f3f3f3"/>
  </g>
</svg>
