<svg id="intro-icon2" xmlns="http://www.w3.org/2000/svg" width="66.529" height="66.564" viewBox="0 0 66.529 66.564">
  <path id="Path_29045" data-name="Path 29045" d="M34.9,2.371a11.751,11.751,0,0,0-1.22,2.177c-.527,1.109-.985,2.038-1.012,2.066s-1.012.194-2.177.374c-1.927.291-2.149.361-2.441.693-.569.666-.458.915,1.3,2.815l1.622,1.733L30.6,14.519c-.319,2.038-.347,2.33-.166,2.676.43.832.915.749,3.176-.5L35.5,15.642,37.414,16.7a12.45,12.45,0,0,0,2.219,1.054A1.265,1.265,0,0,0,40.686,16.7c0-.222-.139-1.317-.333-2.441L40.021,12.2,41.56,10.65c1.567-1.595,1.789-1.955,1.65-2.552-.139-.541-.6-.721-2.787-1.109-1.151-.194-2.094-.374-2.108-.388s-.471-.943-1.012-2.066a9.6,9.6,0,0,0-1.234-2.163A1.278,1.278,0,0,0,34.9,2.371Zm1.22,4.84A7.2,7.2,0,0,0,36.9,8.542a5.084,5.084,0,0,0,1.525.416,9.654,9.654,0,0,1,1.359.277,7.329,7.329,0,0,1-1,1.151,5.2,5.2,0,0,0-1.068,1.345c0,.277.222,1.775.361,2.468l.083.4-1.179-.652a6.157,6.157,0,0,0-1.5-.638,5.368,5.368,0,0,0-1.456.638c-.721.388-1.165.555-1.165.444s.1-.666.208-1.262c.319-1.664.333-1.636-.846-2.871a7.43,7.43,0,0,1-.971-1.109,20.134,20.134,0,0,0,2.552-.444c.388-.111.527-.305,1.04-1.373A7.645,7.645,0,0,1,35.5,6.1,5.657,5.657,0,0,1,36.124,7.211Z" transform="translate(-2.231 -2.231)" fill="#f3f3f3"/>
  <path id="Path_29046" data-name="Path 29046" d="M9.388,11.246a11.754,11.754,0,0,0-1.22,2.177c-.527,1.109-.985,2.038-1.012,2.066s-1.012.194-2.177.375c-1.928.291-2.149.36-2.441.693-.569.666-.458.915,1.3,2.815l1.622,1.733-.374,2.288c-.319,2.038-.347,2.33-.166,2.676.43.832.915.749,3.176-.5l1.886-1.054L11.9,25.571a12.453,12.453,0,0,0,2.219,1.054,1.265,1.265,0,0,0,1.054-1.054c0-.222-.139-1.317-.333-2.441l-.333-2.052,1.539-1.553c1.567-1.595,1.789-1.955,1.65-2.552-.139-.541-.6-.721-2.787-1.109-1.151-.194-2.094-.375-2.108-.388s-.472-.943-1.012-2.066a9.592,9.592,0,0,0-1.234-2.163A1.278,1.278,0,0,0,9.388,11.246ZM10.539,16c.61,1.414.818,1.581,2.3,1.83.679.1,1.29.194,1.345.194a6.142,6.142,0,0,1-.929,1.179A5.782,5.782,0,0,0,12.2,20.634c0,.25.222,1.775.361,2.441l.083.388-1.165-.638A4.926,4.926,0,0,0,9.9,22.2a4.808,4.808,0,0,0-1.442.6,6.23,6.23,0,0,1-1.082.568,7.821,7.821,0,0,1,.166-1.206,13.549,13.549,0,0,0,.222-1.47,4.727,4.727,0,0,0-1.054-1.484,8.385,8.385,0,0,1-.957-1.179,19.939,19.939,0,0,0,2.538-.444c.388-.111.527-.305,1.04-1.373A6.169,6.169,0,0,1,10,14.977,4.721,4.721,0,0,1,10.539,16Z" transform="translate(-2.231 -2.231)" fill="#f3f3f3"/>
  <path id="Path_29047" data-name="Path 29047" d="M60.281,11.33c-.111.139-.624,1.123-1.137,2.191s-.929,1.955-.957,1.983-1.012.18-2.177.361c-1.928.291-2.149.36-2.441.693-.569.666-.458.915,1.3,2.815l1.622,1.733-.374,2.288c-.319,2.038-.347,2.33-.166,2.676.43.832.915.749,3.176-.5l1.886-1.054,1.914,1.054a12.45,12.45,0,0,0,2.219,1.054A1.265,1.265,0,0,0,66.2,25.571c0-.222-.139-1.317-.333-2.441l-.333-2.052,1.539-1.553c1.567-1.595,1.789-1.955,1.65-2.552-.139-.541-.6-.721-2.787-1.109-1.151-.194-2.094-.375-2.108-.388s-.444-.9-.943-1.955-1.026-2.052-1.137-2.191a1.264,1.264,0,0,0-1.47,0Zm1.484,4.881c.707,1.387.749,1.428,2.552,1.692l1.151.166-1.109,1.137a5.3,5.3,0,0,0-1.123,1.4c0,.277.222,1.775.361,2.468l.083.4L62.5,22.825a6.157,6.157,0,0,0-1.5-.638,5.369,5.369,0,0,0-1.456.638c-.721.388-1.165.555-1.165.444s.1-.666.208-1.262c.319-1.664.333-1.636-.846-2.871a7.412,7.412,0,0,1-.971-1.109c.055,0,.555-.069,1.1-.153,1.789-.264,1.8-.264,2.524-1.664a10.28,10.28,0,0,1,.693-1.234A7.737,7.737,0,0,1,61.764,16.211Z" transform="translate(-2.231 -2.231)" fill="#f3f3f3"/>
  <path id="Path_29048" data-name="Path 29048" d="M33.42,20.163a11.166,11.166,0,0,0-9.014,10.913c0,.874-.042,1.026-.416,1.5a3.289,3.289,0,0,0-.693,2.413,3.069,3.069,0,0,0,.929,2.468,4.323,4.323,0,0,1,.832,1.525,11.515,11.515,0,0,0,4.451,5.81l.319.208L29.44,47.01l-.388,2.011L20.8,51.1c-5.575,1.4-8.417,2.177-8.764,2.4a3.012,3.012,0,0,0-.79.777c-.485.777-4.465,10.511-4.548,11.108a3.481,3.481,0,0,0,.1,1.179,3.6,3.6,0,0,0,2.011,2.066c.79.222,52.6.222,53.389,0A3.6,3.6,0,0,0,64.2,66.563a3.48,3.48,0,0,0,.1-1.179c-.1-.666-4.119-10.442-4.59-11.163a2.972,2.972,0,0,0-.929-.818c-.347-.166-4.216-1.22-8.723-2.357l-8.112-2.039-.388-2L41.172,45l.319-.208a11.515,11.515,0,0,0,4.451-5.81,4.323,4.323,0,0,1,.832-1.525,3.1,3.1,0,0,0,.929-2.482,3.34,3.34,0,0,0-.693-2.385c-.333-.43-.374-.638-.458-1.941a10.627,10.627,0,0,0-1.761-5.588,11.08,11.08,0,0,0-6.656-4.77A14.154,14.154,0,0,0,33.42,20.163Zm.915,2.676c-.444,2.482-3.023,4.521-6.157,4.84l-.887.1.374-.749a9.311,9.311,0,0,1,3.578-3.73,10.393,10.393,0,0,1,2.857-.971C34.39,22.326,34.418,22.368,34.335,22.839Zm3.176,1.5c1.137,3.869-3.522,7.488-8.459,6.573a6.108,6.108,0,0,1-2.288-.8,3.793,3.793,0,0,1,1.359-.18c3.98-.222,7.7-3.106,8.362-6.5l.166-.832.319.472A5.872,5.872,0,0,1,37.511,24.337Zm3.051-.527a11.508,11.508,0,0,1,2.246,2.371c.458.707.471.749.222.929a3.814,3.814,0,0,1-2.371.583,2.428,2.428,0,0,1-.874-.194,1.161,1.161,0,0,1,.014-.666,6.9,6.9,0,0,0-.236-3.467C39.48,23.075,39.521,23.1,40.561,23.81Zm3.73,5.949c.042.36.083,1.276.083,2.038v1.387l.569.513c.541.513.555.541.513,1.331-.042.735-.083.832-.43,1-.5.236-.721.61-.929,1.553a10.181,10.181,0,0,1-1.955,3.786,9.755,9.755,0,0,1-3.91,2.538,9.09,9.09,0,0,1-5.089.083,8.338,8.338,0,0,1-3.758-2.246,8.808,8.808,0,0,1-2.413-4.285c-.222-.9-.291-1.04-.777-1.345-.527-.333-.541-.361-.541-1.151,0-.763.028-.832.472-1.179a1.6,1.6,0,0,0,.569-.763l.083-.4.929.264a12.237,12.237,0,0,0,5.02.208,12.117,12.117,0,0,0,1.872-.541,11.411,11.411,0,0,0,3.342-2.274l.735-.763.888.222a5.779,5.779,0,0,0,4.049-.374,5.276,5.276,0,0,1,.5-.236C44.167,29.121,44.236,29.412,44.292,29.759ZM32.921,46.275a13.668,13.668,0,0,0,5.2-.014c.929-.25,1.109-.194,1.123.361a1.669,1.669,0,0,0,.083.444c.056.153-.305.4-1.456.971a4.017,4.017,0,0,1-4.729.014c-1.664-.832-1.581-.721-1.29-1.775C31.922,45.984,31.867,45.984,32.921,46.275Zm-.846,3.73c.4.208.735.374.763.4a4.971,4.971,0,0,1-.319.777,4.115,4.115,0,0,0-.347.957,6.513,6.513,0,0,0,.485,1.234c.416.86.652,1.761.416,1.511-.125-.125-1.872-4.854-1.872-5.062C31.2,49.575,31.243,49.589,32.075,50.005Zm7.863-.264c0,.042-.236.707-.513,1.484-.527,1.4-.527,1.4-.61.846a4.318,4.318,0,0,0-.36-1.109l-.291-.555.707-.374C39.591,49.658,39.937,49.561,39.937,49.742Zm-3.744,1.844.277.555-.277.555c-.236.458-.361.555-.693.555s-.458-.1-.693-.555l-.277-.555.277-.555c.236-.458.361-.555.693-.555S35.958,51.128,36.193,51.586Zm-6.587.513c.056.139.86,2.3,1.8,4.826s1.775,4.756,1.872,4.992c.139.388.111.374-.458-.208-1.442-1.47-6.615-7.1-6.615-7.2a29.809,29.809,0,0,1,3.2-2.649C29.468,51.863,29.551,51.974,29.606,52.1Zm13.631,1.026a12.69,12.69,0,0,1,1.553,1.387c0,.1-5.117,5.685-6.615,7.2l-.61.624.374-.971c.208-.541.666-1.789,1.026-2.773.61-1.65,2.2-5.908,2.427-6.49.056-.125.139-.236.194-.236S42.378,52.432,43.238,53.125Zm-18-.79a7.99,7.99,0,0,1-.888.749c-.971.777-1.179,1.193-.846,1.8.111.208,2.566,2.9,5.45,5.991l5.256,5.616-12.342.042c-10.886.028-12.383,0-12.675-.18a.708.708,0,0,1-.319-.471c0-.472,4.188-10.387,4.424-10.5.125-.055,2.843-.763,6.046-1.595s5.838-1.5,5.866-1.5S25.238,52.307,25.238,52.335Zm32.435,2.981c.25.139,4.451,10.081,4.451,10.539a.822.822,0,0,1-.25.485c-.236.208-1.262.222-12.647.194l-12.4-.042,5.256-5.658c2.9-3.12,5.353-5.824,5.45-6,.291-.541.055-1-.887-1.761-.485-.388-.888-.707-.888-.721C45.762,52.279,57.465,55.205,57.674,55.316ZM38.467,53.777c-.333.874-.61,1.276-.61.86a9.954,9.954,0,0,1,.929-1.886A5.861,5.861,0,0,1,38.467,53.777Zm-2.551,2.274c.1.333.277,1.026.43,1.553l.264.971L36.1,59.934a6.383,6.383,0,0,1-.6,1.359,6.392,6.392,0,0,1-.6-1.359l-.513-1.359.263-.971c.153-.527.333-1.22.43-1.553.111-.43.222-.583.416-.583S35.8,55.621,35.916,56.051Z" transform="translate(-2.231 -2.231)" fill="#f3f3f3"/>
  <path id="Path_29049" data-name="Path 29049" d="M9.388,34.543a11.754,11.754,0,0,0-1.22,2.177c-.527,1.109-.985,2.039-1.012,2.066s-1.012.194-2.177.374c-1.928.291-2.149.361-2.441.693-.569.666-.458.915,1.3,2.815L5.464,44.4l-.374,2.288c-.319,2.039-.347,2.33-.166,2.676.43.832.915.749,3.176-.5l1.886-1.054L11.9,48.868a12.453,12.453,0,0,0,2.219,1.054,1.265,1.265,0,0,0,1.054-1.054c0-.222-.139-1.317-.333-2.441l-.333-2.052,1.539-1.553c1.567-1.595,1.789-1.955,1.65-2.552-.139-.541-.6-.721-2.787-1.109-1.151-.194-2.094-.374-2.108-.388s-.472-.943-1.012-2.066a9.59,9.59,0,0,0-1.234-2.163A1.278,1.278,0,0,0,9.388,34.543ZM10.539,39.3c.61,1.415.818,1.581,2.3,1.831.679.1,1.29.194,1.345.194a6.14,6.14,0,0,1-.929,1.179A5.786,5.786,0,0,0,12.2,43.931c0,.25.222,1.775.361,2.441l.083.388-1.165-.638A4.929,4.929,0,0,0,9.9,45.5a4.811,4.811,0,0,0-1.442.6,6.235,6.235,0,0,1-1.082.569,7.821,7.821,0,0,1,.166-1.207,13.548,13.548,0,0,0,.222-1.47A4.727,4.727,0,0,0,6.712,42.5a8.382,8.382,0,0,1-.957-1.179,19.939,19.939,0,0,0,2.538-.444c.388-.111.527-.305,1.04-1.373A6.172,6.172,0,0,1,10,38.273,4.724,4.724,0,0,1,10.539,39.3Z" transform="translate(-2.231 -2.231)" fill="#f3f3f3"/>
  <path id="Path_29050" data-name="Path 29050" d="M60.281,34.626c-.111.139-.624,1.123-1.137,2.191s-.929,1.955-.957,1.983-1.012.18-2.177.361c-1.928.291-2.149.361-2.441.693-.569.666-.458.915,1.3,2.815L56.495,44.4l-.374,2.288c-.319,2.039-.347,2.33-.166,2.676.43.832.915.749,3.176-.5l1.886-1.054,1.914,1.054a12.45,12.45,0,0,0,2.219,1.054A1.265,1.265,0,0,0,66.2,48.868c0-.222-.139-1.317-.333-2.441l-.333-2.052,1.539-1.553c1.567-1.595,1.789-1.955,1.65-2.552-.139-.541-.6-.721-2.787-1.109-1.151-.194-2.094-.374-2.108-.388s-.444-.9-.943-1.955-1.026-2.052-1.137-2.191a1.263,1.263,0,0,0-1.47,0Zm1.484,4.881c.707,1.387.749,1.428,2.552,1.692l1.151.166L64.357,42.5a5.3,5.3,0,0,0-1.123,1.4c0,.277.222,1.775.361,2.468l.083.4L62.5,46.122a6.157,6.157,0,0,0-1.5-.638,5.368,5.368,0,0,0-1.456.638c-.721.388-1.165.555-1.165.444s.1-.666.208-1.262c.319-1.664.333-1.636-.846-2.87a7.418,7.418,0,0,1-.971-1.109c.055,0,.555-.069,1.1-.153,1.789-.264,1.8-.264,2.524-1.664a10.287,10.287,0,0,1,.693-1.234A7.741,7.741,0,0,1,61.764,39.508Z" transform="translate(-2.231 -2.231)" fill="#f3f3f3"/>
</svg>
