<svg id="Layer_1" data-name="Layer 1" xmlns="http://www.w3.org/2000/svg" width="271.41" height="60.272" viewBox="0 0 271.41 60.272">
  <path id="Path_29619" data-name="Path 29619" d="M596.963.114,580.447,38.57a.082.082,0,0,1-.157-.034V.114a.082.082,0,0,1,.082-.082L596.887,0a.08.08,0,0,1,.075.114Z" transform="translate(-356.201 0)" fill="#522e7b"/>
  <path id="Path_29620" data-name="Path 29620" d="M694.142,24.373,684.06.926a.094.094,0,0,1,.085-.136c5.184.092,11.3.988,15.254,4.712,3.736,3.5,4.842,8.847,3.767,13.74-.242,1.1-1.918,5.462-3.332,5.344a37.928,37.928,0,0,0-5.448-.061.242.242,0,0,1-.242-.145Z" transform="translate(-434.839 -0.599)" fill="#522e7b"/>
  <path id="Path_29621" data-name="Path 29621" d="M638.24,51.973l5.467,12.692a.138.138,0,0,1-.1.213,40.979,40.979,0,0,0-14.309,7.99c-.085.07-.153.068-.2,0a.242.242,0,0,1,.029-.1q4.426-10.387,8.905-20.793a.116.116,0,0,1,.216,0Z" transform="translate(-393.193 -39.334)" fill="#74348a"/>
  <path id="Path_29622" data-name="Path 29622" d="M747.638,148.6l-7.428-17.271a.126.126,0,0,1,.119-.174l4.373.208a.3.3,0,0,1,.22.1c4.162,4.508,4.712,11.3,2.906,17.019a.314.314,0,0,1-.085.133.061.061,0,0,1-.1-.017Z" transform="translate(-477.393 -99.403)" fill="#522e7b"/>
  <path id="Path_29623" data-name="Path 29623" d="M611.259,136.824l10.118,23.525a.2.2,0,0,1-.085.242c-6.053,3.227-13.3,3.2-19.951,3.225q-9.721.024-19.416.027a.133.133,0,0,1-.121-.186c.586-1.373,1.155-2.792,1.838-4.06,5.876-10.9,15.278-19.428,27.321-22.927a.242.242,0,0,1,.3.148Z" transform="translate(-357.341 -103.571)" fill="#522e7b"/>
  <path id="Path_29624" data-name="Path 29624" d="M5.215,104.488a4.361,4.361,0,0,1-3.209-1.07A4.212,4.212,0,0,1,.94,100.312V98.157H3v2.171a2.51,2.51,0,0,0,.557,1.725,2.183,2.183,0,0,0,1.713.632,2.368,2.368,0,0,0,1.7-.537,2.333,2.333,0,0,0,.541-1.717V90.52H9.592l-.024,9.619q0,3.394-2.534,4.117a6.626,6.626,0,0,1-1.82.233Z" transform="translate(-0.568 -72.795)" fill="#522e7b"/>
  <path id="Path_29625" data-name="Path 29625" d="M31.232,100.35c0,.553-.205.829-.612.829h-.671a2.126,2.126,0,0,1-2.25-1.239,3.1,3.1,0,0,1-.182-1.141V90.51h2.06v8.008a.983.983,0,0,0,.17.687.821.821,0,0,0,.58.166h.292a.6.6,0,0,1,.395.1A1.33,1.33,0,0,1,31.232,100.35Z" transform="translate(-16.656 -72.789)" fill="#522e7b"/>
  <path id="Path_29626" data-name="Path 29626" d="M34.389,107.357a.623.623,0,0,1-.458-.158,1.074,1.074,0,0,1-.154-.7,1.393,1.393,0,0,1,.146-.746.537.537,0,0,1,.466-.2h.26a1.042,1.042,0,0,0,.73-.249,2.281,2.281,0,0,0,.5-.991q.695-2.83,2.423-3.414a3.777,3.777,0,0,1,1.184-.182,2.94,2.94,0,0,1,2.266.983,3.592,3.592,0,0,1,.9,2.522,4.126,4.126,0,0,1-.043.643,1.074,1.074,0,0,0,.746.647.83.83,0,0,0,.245.039.58.58,0,0,1,.446.166,1.121,1.121,0,0,1,.15.7,1.354,1.354,0,0,1-.142.734.533.533,0,0,1-.47.205,1.693,1.693,0,0,1-1.535-1.042,2.988,2.988,0,0,1-2.554,1.224,4.736,4.736,0,0,1-2.613-.821,1.788,1.788,0,0,1-.754.521,3.635,3.635,0,0,1-1,.114Zm3.327-2.187a2.621,2.621,0,0,0,1.445.509,1.512,1.512,0,0,0,.947-.221,1.662,1.662,0,0,0,.5-1.35,1.543,1.543,0,0,0-.643-1.37.916.916,0,0,0-.537-.154,1.4,1.4,0,0,0-1.129.691,3.7,3.7,0,0,0-.584,1.895Z" transform="translate(-20.44 -78.968)" fill="#522e7b"/>
  <path id="Path_29627" data-name="Path 29627" d="M62.684,102.851a1.65,1.65,0,0,0-1.141.395,1.239,1.239,0,0,0-.426.979,1.338,1.338,0,0,0,.892,1.377,2.084,2.084,0,0,0,.762.122h2.4v1.8h-7.1a.6.6,0,0,1-.454-.162,1.113,1.113,0,0,1-.15-.7,1.4,1.4,0,0,1,.138-.742.5.5,0,0,1,.466-.186h1.421a3.284,3.284,0,0,1-.328-1.524,2.763,2.763,0,0,1,1.125-2.368A4.156,4.156,0,0,1,62.775,101a5.131,5.131,0,0,1,1.8.308v1.8A18.907,18.907,0,0,0,62.684,102.851Z" transform="translate(-34.775 -79.138)" fill="#522e7b"/>
  <path id="Path_29628" data-name="Path 29628" d="M87.613,88.486V99.143H79.49V97.359h2.569l-1.07-6.512H83.1l1.054,6.512h1.4V88.486Zm-5.1-.343c-.343,0-.517.154-.517.458s.193.47.584.47h.75v.967H80.568V89.07h.572a1.081,1.081,0,0,1-.134-.568,1.263,1.263,0,0,1,.395-.991,1.239,1.239,0,0,1,.833-.351,2.522,2.522,0,0,1,.821.134v.939A3.45,3.45,0,0,0,82.513,88.143Z" transform="translate(-48.117 -70.761)" fill="#522e7b"/>
  <path id="Path_29629" data-name="Path 29629" d="M106.846,90.52v10.657H104.79V90.52Z" transform="translate(-63.431 -72.795)" fill="#522e7b"/>
  <path id="Path_29630" data-name="Path 29630" d="M128.145,104.488a4.361,4.361,0,0,1-3.209-1.07,4.212,4.212,0,0,1-1.066-3.106V98.157h2.06v2.171a2.51,2.51,0,0,0,.557,1.725,2.183,2.183,0,0,0,1.713.632,1.938,1.938,0,0,0,2.238-2.254V90.52h2.084l-.024,9.619q0,3.394-2.534,4.117A6.647,6.647,0,0,1,128.145,104.488Z" transform="translate(-74.979 -72.795)" fill="#522e7b"/>
  <path id="Path_29631" data-name="Path 29631" d="M154.162,100.35c0,.553-.205.829-.612.829h-.671a2.126,2.126,0,0,1-2.25-1.239,3.1,3.1,0,0,1-.182-1.141V90.51h2.06v8.008a.983.983,0,0,0,.17.687.821.821,0,0,0,.58.166h.292a.6.6,0,0,1,.395.1,1.33,1.33,0,0,1,.217.876Z" transform="translate(-91.066 -72.789)" fill="#522e7b"/>
  <path id="Path_29632" data-name="Path 29632" d="M160.637,101a3.916,3.916,0,0,1,3.371,1.547,5.85,5.85,0,0,1,.979,3.552v1.452h-7.657a.6.6,0,0,1-.458-.162,1.082,1.082,0,0,1-.154-.7,1.315,1.315,0,0,1,.146-.742.537.537,0,0,1,.466-.2h5.6a3.667,3.667,0,0,0-.714-2.131,2.526,2.526,0,0,0-2.033-.742,6.579,6.579,0,0,0-1.879.308v-1.788A7.07,7.07,0,0,1,160.637,101Zm-.726,8.746a1.074,1.074,0,0,1,.3-.742.861.861,0,0,1,.62-.308,1.306,1.306,0,0,1,.513.079,1.054,1.054,0,0,1,.328.225,1.1,1.1,0,0,1,.221.339,1,1,0,0,1,.083.395,1.03,1.03,0,0,1-.3.742.888.888,0,0,1-.628.308,1.236,1.236,0,0,1-.5-.083,1.039,1.039,0,0,1-.332-.221,1,1,0,0,1-.3-.746Z" transform="translate(-94.857 -79.138)" fill="#522e7b"/>
  <path id="Path_29633" data-name="Path 29633" d="M185.2,107.94a1.405,1.405,0,0,1-1.156-.485,4.225,4.225,0,0,1-.813,2.933,3.506,3.506,0,0,1-2.633.856h-.485v-1.867h.434a1.385,1.385,0,0,0,1.129-.395,2.769,2.769,0,0,0,.308-1.579V101.68h2.06v3.363a.959.959,0,0,0,.738,1.038,1.509,1.509,0,0,0,.418.067h.142c.359,0,.541.3.541.9s-.182.9-.541.9Z" transform="translate(-109.022 -79.55)" fill="#522e7b"/>
  <path id="Path_29634" data-name="Path 29634" d="M194.173,99.393V90.52h2.06v10.657h-3.825a.628.628,0,0,1-.466-.158,1.109,1.109,0,0,1-.146-.7,1.366,1.366,0,0,1,.142-.746.541.541,0,0,1,.47-.2Z" transform="translate(-116.09 -72.795)" fill="#522e7b"/>
  <path id="Path_29635" data-name="Path 29635" d="M219.658,99.972a4.974,4.974,0,0,1-.706-.047,4.081,4.081,0,0,1-.659-.178,2.763,2.763,0,0,1-1.267-.928,2.546,2.546,0,0,1-.5-1.61,3.012,3.012,0,0,1,1.085-2.534,3.477,3.477,0,0,1,2.218-.714h2.7v4.7a.908.908,0,0,0,.1.509.529.529,0,0,0,.43.134h.754a.6.6,0,0,1,.458.158,1.074,1.074,0,0,1,.154.7,1.342,1.342,0,0,1-.146.742.525.525,0,0,1-.466.205h-.924c-1.239,0-1.993-.422-2.254-1.267A5.107,5.107,0,0,1,219.658,99.972Zm-1.973-8.561a.971.971,0,0,1,.3-.722.88.88,0,0,1,.624-.3,1.353,1.353,0,0,1,.505.079,1.006,1.006,0,0,1,.324.221,1.113,1.113,0,0,1,.221.328.956.956,0,0,1,.083.395.987.987,0,0,1-.3.718.9.9,0,0,1-.624.3,1.227,1.227,0,0,1-.5-.083,1.365,1.365,0,0,1-.332-.225.947.947,0,0,1-.316-.706Zm1.973,6.757a2.475,2.475,0,0,0,.829-.114V95.761H219.7a1.074,1.074,0,0,0-.864.355,1.311,1.311,0,0,0-.3.888.994.994,0,0,0,1.113,1.164Zm.545-6.749a.979.979,0,0,1,.292-.71.872.872,0,0,1,.62-.3,1.393,1.393,0,0,1,.513.075,1.03,1.03,0,0,1,.328.217,1.073,1.073,0,0,1,.221.324.971.971,0,0,1-.221,1.1.892.892,0,0,1-.624.3,1.24,1.24,0,0,1-.509-.083,1.153,1.153,0,0,1-.32-.221.94.94,0,0,1-.3-.7Z" transform="translate(-131.061 -72.715)" fill="#522e7b"/>
  <path id="Path_29636" data-name="Path 29636" d="M234.139,107.934a.6.6,0,0,1-.458-.162,1.081,1.081,0,0,1-.154-.7,1.314,1.314,0,0,1,.146-.742.533.533,0,0,1,.466-.2h2.491v-4.46h2.056v6.264Zm.284,2.277a.967.967,0,0,1,.3-.718.9.9,0,0,1,.624-.292,1.318,1.318,0,0,1,.5.079,1.022,1.022,0,0,1,.328.213,1.148,1.148,0,0,1,.221.324.939.939,0,0,1,.083.395.967.967,0,0,1-.3.71.9.9,0,0,1-.624.3,1.331,1.331,0,0,1-.5-.079,1.236,1.236,0,0,1-.328-.213A.947.947,0,0,1,234.423,110.211Zm2.526,0a.983.983,0,0,1,.3-.714.868.868,0,0,1,.62-.3,1.362,1.362,0,0,1,.509.079.979.979,0,0,1,.328.213,1.073,1.073,0,0,1,.221.324.938.938,0,0,1,.083.395.951.951,0,0,1-.3.71.9.9,0,0,1-.624.3,1.342,1.342,0,0,1-.505-.079,1.078,1.078,0,0,1-.32-.213.947.947,0,0,1-.3-.714Z" transform="translate(-141.35 -79.544)" fill="#522e7b"/>
  <path id="Path_29637" data-name="Path 29637" d="M249.46,109.377h.434a1.354,1.354,0,0,0,1.125-.395,2.723,2.723,0,0,0,.316-1.579V101.68h2.056V107.4a4.291,4.291,0,0,1-.821,2.96,3.464,3.464,0,0,1-2.625.888h-.485Z" transform="translate(-150.999 -79.55)" fill="#522e7b"/>
  <path id="Path_29638" data-name="Path 29638" d="M266.2,90.52v10.657h-2.06V90.52Z" transform="translate(-159.885 -72.795)" fill="#522e7b"/>
  <path id="Path_29639" data-name="Path 29639" d="M275.719,105.355c.517,0,.789-.114.789-.335a1,1,0,0,0-.154-.474c-.107-.182-.355-.553-.746-1.117l-1.247-1.875,1.847-1.184,1.366,2.214a8.586,8.586,0,0,1,1.03,2.072,2.438,2.438,0,0,1,.067.58,1.827,1.827,0,0,1-.56,1.35,2.254,2.254,0,0,1-1.67.56h-3.8v-1.792Z" transform="translate(-165.031 -78.757)" fill="#522e7b"/>
  <path id="Path_29640" data-name="Path 29640" d="M299.279,90.52v10.657H291.16V99.393h2.55l-1.212-7.1h2.108l1.228,7.1h1.405V90.52Zm-4.085,12.512c-.343,0-.513.154-.513.458s.193.454.58.454h.754v.975h-2.763v-.967h.576a1.082,1.082,0,0,1-.134-.568,1.263,1.263,0,0,1,.395-.991,1.232,1.232,0,0,1,.829-.351,2.5,2.5,0,0,1,.821.134v.939A3.453,3.453,0,0,0,295.194,103.032Z" transform="translate(-176.241 -72.795)" fill="#522e7b"/>
  <path id="Path_29641" data-name="Path 29641" d="M318.51,90.52v10.657h-2.06V90.52Z" transform="translate(-191.548 -72.795)" fill="#522e7b"/>
  <path id="Path_29642" data-name="Path 29642" d="M348.245,103.634h-9.433a4.305,4.305,0,0,1-2.562-.56,2.306,2.306,0,0,1-.71-1.93v-2.6H337.6v2.305a.813.813,0,0,0,.359.789,3.454,3.454,0,0,0,1.437.2h6.793v-4.46h2.06Zm-8.577-8.02a1.026,1.026,0,0,1,.3-.742.868.868,0,0,1,.62-.3,1.267,1.267,0,0,1,.505.079,1.038,1.038,0,0,1,.324.225,1.138,1.138,0,0,1,.225.335,1.025,1.025,0,0,1,.083.395,1.011,1.011,0,0,1-.308.738.88.88,0,0,1-.62.308,1.239,1.239,0,0,1-.505-.079,1.362,1.362,0,0,1-.324-.229,1,1,0,0,1-.3-.726Zm2.546,0a1.058,1.058,0,0,1,.3-.738.861.861,0,0,1,.62-.308,1.287,1.287,0,0,1,.509.079,1.011,1.011,0,0,1,.328.225,1.137,1.137,0,0,1,.225.335,1.026,1.026,0,0,1,.083.395,1.011,1.011,0,0,1-.308.738.88.88,0,0,1-.624.308,1.231,1.231,0,0,1-.5-.079,1.2,1.2,0,0,1-.332-.229,1.014,1.014,0,0,1-.308-.726Z" transform="translate(-203.104 -75.244)" fill="#522e7b"/>
  <path id="Path_29643" data-name="Path 29643" d="M376.088,100.35c0,.553-.2.829-.612.829h-.671a2.134,2.134,0,0,1-2.25-1.239,3.188,3.188,0,0,1-.178-1.141V90.51h2.056v8.008a.982.982,0,0,0,.17.687.825.825,0,0,0,.584.166h.288a.58.58,0,0,1,.395.1A1.306,1.306,0,0,1,376.088,100.35Z" transform="translate(-225.401 -72.789)" fill="#522e7b"/>
  <path id="Path_29644" data-name="Path 29644" d="M379.25,107.381a.628.628,0,0,1-.462-.158,1.105,1.105,0,0,1-.15-.7,1.358,1.358,0,0,1,.146-.746.529.529,0,0,1,.466-.2h.268a1.026,1.026,0,0,0,.679-.182,2.337,2.337,0,0,0,.588-1.184q.837-3.454,3.521-3.454a3,3,0,0,1,2.325.987,3.588,3.588,0,0,1,.9,2.51,3.32,3.32,0,0,1-.876,2.427,3.019,3.019,0,0,1-2.262.9,4.792,4.792,0,0,1-2.648-.821,1.772,1.772,0,0,1-.758.521,3.623,3.623,0,0,1-.995.114Zm3.323-2.187a2.633,2.633,0,0,0,1.449.509,1.511,1.511,0,0,0,.947-.221,1.673,1.673,0,0,0,.5-1.35,1.551,1.551,0,0,0-.639-1.37.923.923,0,0,0-.537-.154,1.4,1.4,0,0,0-1.133.691,3.738,3.738,0,0,0-.584,1.895Z" transform="translate(-229.187 -78.991)" fill="#522e7b"/>
  <path id="Path_29645" data-name="Path 29645" d="M406.3,105.373c.49,0,.734-.107.734-.316a.95.95,0,0,0-.142-.482c-.095-.166-.28-.454-.56-.868l-1.441-2.123,1.867-1.184,1.954,3.189a17.142,17.142,0,0,0,.959,1.449.79.79,0,0,0,.576.336.6.6,0,0,1,.45.158,1.073,1.073,0,0,1,.154.7,1.341,1.341,0,0,1-.146.742.529.529,0,0,1-.466.205h-.754a1.492,1.492,0,0,1-1.358-.722,2.238,2.238,0,0,1-1.61.707H403.19v-1.788Z" transform="translate(-244.052 -78.775)" fill="#522e7b"/>
  <path id="Path_29646" data-name="Path 29646" d="M423.432,95.648a4.005,4.005,0,0,1,3.347,1.425,5.669,5.669,0,0,1,1.058,3.335h.829a.608.608,0,0,1,.458.158,1.046,1.046,0,0,1,.158.7,1.387,1.387,0,0,1-.142.742.549.549,0,0,1-.482.205H420.2a.612.612,0,0,1-.458-.162,1.081,1.081,0,0,1-.154-.7,1.35,1.35,0,0,1,.146-.742.537.537,0,0,1,.466-.2h5.581a3.765,3.765,0,0,0-.71-2.147,2.505,2.505,0,0,0-2.041-.746,7.434,7.434,0,0,0-1.879.308V96.051A6.631,6.631,0,0,1,423.432,95.648Zm-1.239-2.368a1.015,1.015,0,0,1,.316-.754.88.88,0,0,1,.624-.308,1.259,1.259,0,0,1,.505.083.959.959,0,0,1,.324.225,1.152,1.152,0,0,1,.221.335,1.011,1.011,0,0,1,.083.395,1.03,1.03,0,0,1-.3.738.888.888,0,0,1-.624.308,1.227,1.227,0,0,1-.5-.083,1.425,1.425,0,0,1-.332-.229.986.986,0,0,1-.316-.722Z" transform="translate(-253.973 -73.822)" fill="#522e7b"/>
  <path id="Path_29647" data-name="Path 29647" d="M446.823,101.185a1.732,1.732,0,0,1-1.7-.813,2.069,2.069,0,0,1-1.638.789c-.221,0-.434.024-.651.024h-1.243a.611.611,0,0,1-.462-.158,1.105,1.105,0,0,1-.15-.7,1.323,1.323,0,0,1,.146-.746.533.533,0,0,1,.466-.2h.908a1.232,1.232,0,0,0,.762-.174.991.991,0,0,0,.2-.746V90.52h2.06v7.764a1.1,1.1,0,0,0,.272.849,1.579,1.579,0,0,0,1.03.249.6.6,0,0,1,.454.162,1.062,1.062,0,0,1,.158.7,1.329,1.329,0,0,1-.138.73A.529.529,0,0,1,446.823,101.185Z" transform="translate(-266.92 -72.795)" fill="#522e7b"/>
  <path id="Path_29648" data-name="Path 29648" d="M456.618,99.393V90.52h2.056v10.657h-3.825a.62.62,0,0,1-.462-.158,1.1,1.1,0,0,1-.15-.7,1.358,1.358,0,0,1,.146-.746.537.537,0,0,1,.466-.2Z" transform="translate(-274.948 -72.795)" fill="#522e7b"/>
  <path id="Path_29649" data-name="Path 29649" d="M484.258,107.94a1.4,1.4,0,0,1-1.156-.485,4.226,4.226,0,0,1-.813,2.933,3.513,3.513,0,0,1-2.633.856h-.485v-1.867h.434a1.385,1.385,0,0,0,1.129-.395,2.769,2.769,0,0,0,.308-1.579V101.68h2.06v3.363a.959.959,0,0,0,.738,1.038,1.509,1.509,0,0,0,.418.059h.138q.545,0,.545.9c0,.6-.182.9-.545.9Z" transform="translate(-290.045 -79.55)" fill="#522e7b"/>
  <path id="Path_29650" data-name="Path 29650" d="M497.255,99.2a2.721,2.721,0,0,1-2.27-.829,2.374,2.374,0,0,1-1.9.789c-.288.02-.6.032-.951.032h-.671a.612.612,0,0,1-.458-.162,1.085,1.085,0,0,1-.15-.7,1.356,1.356,0,0,1,.142-.742.537.537,0,0,1,.466-.2h.7a2.369,2.369,0,0,0,.908-.1.687.687,0,0,0,.3-.663V93.612h2.056v2.676a.979.979,0,0,0,1.117,1.1,1.314,1.314,0,0,0,.691-.122.715.715,0,0,0,.336-.639V93.612h2.056v2.676a1.185,1.185,0,0,0,.17.789,1.05,1.05,0,0,0,.829.324,1.184,1.184,0,0,0,.683-.122.817.817,0,0,0,.28-.683V92.941h2.056V96.3a1.105,1.105,0,0,0,.272.853,1.579,1.579,0,0,0,1.026.245.608.608,0,0,1,.454.162,1.062,1.062,0,0,1,.158.7,1.331,1.331,0,0,1-.15.738.529.529,0,0,1-.462.205,1.763,1.763,0,0,1-1.689-.845,2.25,2.25,0,0,1-1.918.845A3.157,3.157,0,0,1,500.069,99a1.234,1.234,0,0,0-2.258.166A5.258,5.258,0,0,1,497.255,99.2Zm-.927-8.944a1.018,1.018,0,0,1,.3-.742.884.884,0,0,1,.628-.308,1.259,1.259,0,0,1,.505.083.908.908,0,0,1,.32.225,1.152,1.152,0,0,1,.221.335,1.038,1.038,0,0,1-.225,1.145.88.88,0,0,1-.62.308,1.231,1.231,0,0,1-.505-.083,1.183,1.183,0,0,1-.324-.229A.987.987,0,0,1,496.327,90.254Zm1.334-2.005a.967.967,0,0,1,.3-.718.88.88,0,0,1,.616-.292,1.326,1.326,0,0,1,.5.075.94.94,0,0,1,.32.217,1.073,1.073,0,0,1,.221.324.938.938,0,0,1,.083.395.959.959,0,0,1-.3.707.876.876,0,0,1-.616.3,1.228,1.228,0,0,1-.5-.083,1.065,1.065,0,0,1-.328-.213A.944.944,0,0,1,497.661,88.248Zm1.22,2.005a1.066,1.066,0,0,1,.316-.742.852.852,0,0,1,.616-.312,1.3,1.3,0,0,1,.513.083.952.952,0,0,1,.332.225,1.125,1.125,0,0,1,.221.335.966.966,0,0,1,.087.395,1.01,1.01,0,0,1-.308.738.88.88,0,0,1-.624.308,1.224,1.224,0,0,1-.5-.083,1.059,1.059,0,0,1-.332-.229A1,1,0,0,1,498.881,90.254Z" transform="translate(-297.112 -70.807)" fill="#522e7b"/>
  <path id="Path_29651" data-name="Path 29651" d="M527.423,106.16V101.7h2.06v6.264h-3.864a.6.6,0,0,1-.458-.162,1.083,1.083,0,0,1-.154-.7,1.315,1.315,0,0,1,.146-.742.536.536,0,0,1,.466-.2Zm-.134,4.038a.979.979,0,0,1,.3-.714.861.861,0,0,1,.616-.3,1.392,1.392,0,0,1,.513.075.989.989,0,0,1,.328.217,1.085,1.085,0,0,1,.225.324.97.97,0,0,1-.225,1.1.884.884,0,0,1-.624.3,1.243,1.243,0,0,1-.505-.083.908.908,0,0,1-.32-.213.947.947,0,0,1-.3-.722Z" transform="translate(-317.784 -79.562)" fill="#522e7b"/>
  <path id="Path_29652" data-name="Path 29652" d="M542.222,86.15c-.343,0-.517.15-.517.454s.2.458.584.458h.754v.967H540.28V87.07h.572a1.187,1.187,0,0,1-.134-.576,1.271,1.271,0,0,1,1.224-1.334,2.4,2.4,0,0,1,.821.134v.939A2.992,2.992,0,0,0,542.222,86.15Zm.446,2.558V97.94h-2.056V88.708Z" transform="translate(-327.033 -69.55)" fill="#522e7b"/>
  <path id="Path_29653" data-name="Path 29653" d="M3.679,148.09l2.277,6.082H4.567l-.458-1.338H1.831l-.478,1.342H0l2.309-6.086Zm-.707,1.5-.789,2.234H3.761l-.77-2.234Z" transform="translate(0 -107.642)" fill="#522e7b"/>
  <path id="Path_29654" data-name="Path 29654" d="M19.143,154.3a1.505,1.505,0,0,1-1.445-.683h0v.56H16.53V148.09h1.212V150.3h0a1.382,1.382,0,0,1,.56-.474,1.852,1.852,0,0,1,.825-.178,1.634,1.634,0,0,1,1.3.624,2.55,2.55,0,0,1,.521,1.689,2.6,2.6,0,0,1-.521,1.7,1.642,1.642,0,0,1-1.287.632ZM19.482,153a1.677,1.677,0,0,0,.28-1.022,1.764,1.764,0,0,0-.272-1.026.852.852,0,0,0-.746-.395.9.9,0,0,0-.766.395,1.67,1.67,0,0,0-.28,1.022,1.729,1.729,0,0,0,.28,1.034.864.864,0,0,0,.746.395.892.892,0,0,0,.754-.4Z" transform="translate(-10.005 -107.642)" fill="#522e7b"/>
  <path id="Path_29655" data-name="Path 29655" d="M31.575,152.77c-.446,0-.671.138-.671.395a.4.4,0,0,0,.213.336,2.554,2.554,0,0,0,.845.249,3.106,3.106,0,0,1,1.366.5,1.034,1.034,0,0,1,.351.813,1.322,1.322,0,0,1-.549,1.141,2.475,2.475,0,0,1-1.464.395,2.6,2.6,0,0,1-1.484-.395,1.425,1.425,0,0,1-.592-1.184h1.153a.639.639,0,0,0,.264.553,1.117,1.117,0,0,0,.663.189c.371,0,.6-.071.675-.217a.789.789,0,0,0,.122-.343c0-.154-.1-.28-.3-.395a3.658,3.658,0,0,0-.864-.264,6.829,6.829,0,0,1-1.085-.312.86.86,0,0,1-.525-.908,1.216,1.216,0,0,1,.5-1.058,2.412,2.412,0,0,1,1.409-.351c1.22,0,1.871.466,1.973,1.4H32.4a.568.568,0,0,0-.233-.454A1.046,1.046,0,0,0,31.575,152.77Z" transform="translate(-17.91 -109.953)" fill="#522e7b"/>
  <path id="Path_29656" data-name="Path 29656" d="M43.362,148.09v2.293h.028a1.48,1.48,0,0,1,.541-.529,1.76,1.76,0,0,1,1.973.225,1.973,1.973,0,0,1,.395,1.342v2.763H45.071v-2.526a1.453,1.453,0,0,0-.174-.789.722.722,0,0,0-.639-.264.789.789,0,0,0-.679.3,1.555,1.555,0,0,0-.217.92v2.368H42.15v-6.1Z" transform="translate(-25.514 -107.642)" fill="#522e7b"/>
  <path id="Path_29657" data-name="Path 29657" d="M57.057,156.692a2.167,2.167,0,0,1-1.63-.647,2.538,2.538,0,0,1,0-3.327,2.127,2.127,0,0,1,1.614-.671,1.973,1.973,0,0,1,1.579.671,2.534,2.534,0,0,1,.6,1.717v.225h-3.2c.032.746.395,1.121,1.078,1.121a1.184,1.184,0,0,0,.608-.166.726.726,0,0,0,.351-.395h1.07a1.973,1.973,0,0,1-2.068,1.488Zm.612-3.513a.9.9,0,0,0-.659-.225.943.943,0,0,0-.691.249,1.05,1.05,0,0,0-.3.691h1.973A1.3,1.3,0,0,0,57.669,153.179Z" transform="translate(-33.173 -110.036)" fill="#522e7b"/>
  <path id="Path_29658" data-name="Path 29658" d="M70.592,153.174a1.066,1.066,0,0,0-.908.367,1.618,1.618,0,0,0-.292,1.01v2.021H68.18v-4.409h1.153v.821h0a1.611,1.611,0,0,1,.572-.687,1.476,1.476,0,0,1,.833-.249.789.789,0,0,1,.272.039v1.125A2.248,2.248,0,0,0,70.592,153.174Z" transform="translate(-41.269 -110.039)" fill="#522e7b"/>
  <path id="Path_29659" data-name="Path 29659" d="M84.438,148.086h.332l.308.024v.9c-.162,0-.32-.024-.47-.024a.422.422,0,0,0-.328.111.675.675,0,0,0-.1.454v.2h.837v.813h-.837v3.6H82.966v-3.584H82.24v-.813h.726v-.3a1.283,1.283,0,0,1,.395-1.026A1.579,1.579,0,0,1,84.438,148.086Z" transform="translate(-49.781 -107.638)" fill="#522e7b"/>
  <path id="Path_29660" data-name="Path 29660" d="M92.939,152.046a2.214,2.214,0,0,1,1.666.635,2.325,2.325,0,0,1,.624,1.689,2.289,2.289,0,0,1-.632,1.685,2.242,2.242,0,0,1-1.658.635,2.214,2.214,0,0,1-1.65-.635,2.3,2.3,0,0,1-.624-1.685,2.333,2.333,0,0,1,.616-1.685A2.194,2.194,0,0,1,92.939,152.046ZM92.15,153.3a2.119,2.119,0,0,0,0,2.119.959.959,0,0,0,.789.355.928.928,0,0,0,.789-.367,1.7,1.7,0,0,0,.276-1.042c0-.683-.134-1.089-.395-1.22a1.646,1.646,0,0,0-.675-.193.939.939,0,0,0-.774.347Z" transform="translate(-54.879 -110.035)" fill="#522e7b"/>
  <path id="Path_29661" data-name="Path 29661" d="M107.032,153.174a1.066,1.066,0,0,0-.908.367,1.618,1.618,0,0,0-.292,1.01v2.021H104.62v-4.409h1.153v.821h0a1.579,1.579,0,0,1,.568-.687,1.476,1.476,0,0,1,.833-.249.788.788,0,0,1,.272.039v1.125A2.223,2.223,0,0,0,107.032,153.174Z" transform="translate(-63.327 -110.039)" fill="#522e7b"/>
  <path id="Path_29662" data-name="Path 29662" d="M119.8,156.373a1.367,1.367,0,0,1,0-1.922,2.3,2.3,0,0,1,1.247-.395,4.65,4.65,0,0,0,1.081-.193.4.4,0,0,0,.217-.395.517.517,0,0,0-.178-.43.928.928,0,0,0-.576-.142.959.959,0,0,0-.6.158.723.723,0,0,0-.233.509h-1.212a1.366,1.366,0,0,1,.6-1.1,3.284,3.284,0,0,1,2.937-.055,1.026,1.026,0,0,1,.474.9v2.368a2,2,0,0,0,.154.935h-1.228a2.018,2.018,0,0,1-.087-.418,1.974,1.974,0,0,1-1.48.541A1.666,1.666,0,0,1,119.8,156.373Zm1.547-.466a.868.868,0,0,0,.975-.995v-.47a.675.675,0,0,1-.288.134c-.122.028-.328.059-.616.1a1.243,1.243,0,0,0-.624.217.556.556,0,0,0-.189.45c0,.375.245.56.742.56Z" transform="translate(-72.276 -110.064)" fill="#522e7b"/>
  <path id="Path_29663" data-name="Path 29663" d="M132.74,153.635a2.873,2.873,0,0,1,0-3.339,1.717,1.717,0,0,1,1.417-.643,1.449,1.449,0,0,1,1.31.651h0V148.09h1.212v6.086h-1.153v-.56h0a1.417,1.417,0,0,1-1.322.683A1.744,1.744,0,0,1,132.74,153.635Zm2.51-.62a1.756,1.756,0,0,0,.264-1.038,1.8,1.8,0,0,0-.26-1.038.884.884,0,0,0-.789-.375.92.92,0,0,0-.789.375,1.646,1.646,0,0,0-.28,1.006,1.757,1.757,0,0,0,.288,1.042.92.92,0,0,0,.789.395.884.884,0,0,0,.778-.367Z" transform="translate(-80.025 -107.642)" fill="#522e7b"/>
  <path id="Path_29664" data-name="Path 29664" d="M148.852,152.037a1.267,1.267,0,0,1,1.283.7,1.579,1.579,0,0,1,1.334-.7c.789,0,1.259.193,1.4.584a2.98,2.98,0,0,1,.213.951v2.988h-1.212v-2.569a1.35,1.35,0,0,0-.178-.825.683.683,0,0,0-.564-.209c-.541,0-.813.363-.813,1.089v2.522H149.1v-2.743a1.058,1.058,0,0,0-.166-.655.635.635,0,0,0-.537-.213.766.766,0,0,0-.62.245,1.07,1.07,0,0,0-.237.73v2.613H146.33v-4.393h1.149v.572h0A1.579,1.579,0,0,1,148.852,152.037Z" transform="translate(-88.574 -110.026)" fill="#522e7b"/>
  <path id="Path_29665" data-name="Path 29665" d="M167.552,148.09V149.1H166.34V148.09Zm0,1.677v4.409H166.34v-4.409Z" transform="translate(-100.686 -107.642)" fill="#522e7b"/>
  <path id="Path_29666" data-name="Path 29666" d="M174.758,152.04a1.6,1.6,0,0,1,1.243.426,2,2,0,0,1,.395,1.342v2.763h-1.212v-2.577a1.449,1.449,0,0,0-.178-.789.711.711,0,0,0-.639-.264.789.789,0,0,0-.679.3,1.63,1.63,0,0,0-.217.932v2.368H172.26v-4.385h1.153v.588h.028a1.5,1.5,0,0,1,1.318-.7Z" transform="translate(-104.27 -110.029)" fill="#522e7b"/>
  <path id="Path_29667" data-name="Path 29667" d="M186.742,148.09V149.1H185.53V148.09Zm0,1.677v4.409H185.53v-4.409Z" transform="translate(-112.301 -107.642)" fill="#522e7b"/>
  <path id="Path_29668" data-name="Path 29668" d="M192.865,152.77c-.446,0-.671.138-.671.395a.4.4,0,0,0,.213.335,2.588,2.588,0,0,0,.845.249,3.086,3.086,0,0,1,1.366.5,1.034,1.034,0,0,1,.351.813,1.31,1.31,0,0,1-.549,1.141,2.467,2.467,0,0,1-1.464.395,2.581,2.581,0,0,1-1.48-.395,1.429,1.429,0,0,1-.6-1.184h1.152a.643.643,0,0,0,.268.553,1.113,1.113,0,0,0,.659.189c.371,0,.6-.071.675-.217a.734.734,0,0,0,.122-.343c0-.154-.1-.28-.3-.395a3.614,3.614,0,0,0-.86-.265,6.707,6.707,0,0,1-1.085-.312.864.864,0,0,1-.529-.908,1.216,1.216,0,0,1,.5-1.058,2.436,2.436,0,0,1,1.413-.351c1.216,0,1.871.466,1.973,1.4H193.69a.576.576,0,0,0-.229-.454A1.062,1.062,0,0,0,192.865,152.77Z" transform="translate(-115.54 -109.954)" fill="#522e7b"/>
  <path id="Path_29669" data-name="Path 29669" d="M204.531,154.778a1.7,1.7,0,0,1-1.105-.253.947.947,0,0,1-.3-.75v-2.644H202.4v-.813h.73V149h1.212v1.318h.888v.813h-.888v2.246a.576.576,0,0,0,.107.395.482.482,0,0,0,.359.107,2.459,2.459,0,0,0,.422-.032v.9A4.555,4.555,0,0,1,204.531,154.778Z" transform="translate(-122.514 -108.193)" fill="#522e7b"/>
  <path id="Path_29670" data-name="Path 29670" d="M213.872,153.174a1.066,1.066,0,0,0-.908.367,1.579,1.579,0,0,0-.292,1.01v2.021H211.46v-4.409h1.153v.821h0a1.555,1.555,0,0,1,.572-.687,1.464,1.464,0,0,1,.833-.249.788.788,0,0,1,.268.039v1.125A2.178,2.178,0,0,0,213.872,153.174Z" transform="translate(-127.998 -110.039)" fill="#522e7b"/>
  <path id="Path_29671" data-name="Path 29671" d="M219.9,156.372a1.367,1.367,0,0,1,0-1.922,2.285,2.285,0,0,1,1.247-.395,4.551,4.551,0,0,0,1.078-.193.4.4,0,0,0,.221-.395.517.517,0,0,0-.178-.43.928.928,0,0,0-.576-.142.951.951,0,0,0-.6.158.707.707,0,0,0-.233.509h-1.216a1.37,1.37,0,0,1,.6-1.1,3.272,3.272,0,0,1,2.933-.055,1.022,1.022,0,0,1,.478.9v2.368a2,2,0,0,0,.154.935h-1.228a1.788,1.788,0,0,1-.087-.418,1.974,1.974,0,0,1-1.484.541A1.662,1.662,0,0,1,219.9,156.372Zm1.547-.466a.868.868,0,0,0,.975-.995v-.47a.691.691,0,0,1-.292.134c-.118.028-.324.059-.612.1a1.243,1.243,0,0,0-.624.217.56.56,0,0,0-.193.45C220.7,155.721,220.951,155.906,221.448,155.906Z" transform="translate(-132.866 -110.063)" fill="#522e7b"/>
  <path id="Path_29672" data-name="Path 29672" d="M233.851,154.778a1.677,1.677,0,0,1-1.093-.268.935.935,0,0,1-.3-.75v-2.629h-.734v-.813h.734V149h1.212v1.318h.884v.813h-.884v2.246a.557.557,0,0,0,.1.395.482.482,0,0,0,.359.107,2.459,2.459,0,0,0,.422-.032v.9A4.555,4.555,0,0,1,233.851,154.778Z" transform="translate(-140.26 -108.193)" fill="#522e7b"/>
  <path id="Path_29673" data-name="Path 29673" d="M242.072,148.09V149.1H240.86V148.09Zm0,1.677v4.409H240.86v-4.409Z" transform="translate(-145.794 -107.642)" fill="#522e7b"/>
  <path id="Path_29674" data-name="Path 29674" d="M246.943,152.34l.935,3.012h0l.928-3.012h1.2l-1.5,4.409h-1.346l-1.508-4.409Z" transform="translate(-148.699 -110.215)" fill="#522e7b"/>
  <path id="Path_29675" data-name="Path 29675" d="M260.1,156.692a2.167,2.167,0,0,1-1.63-.647,2.538,2.538,0,0,1,0-3.327,2.127,2.127,0,0,1,1.614-.671,1.973,1.973,0,0,1,1.579.671,2.534,2.534,0,0,1,.588,1.717v.225h-3.185c.032.746.395,1.121,1.078,1.121a1.184,1.184,0,0,0,.608-.166.726.726,0,0,0,.351-.395h1.066a1.973,1.973,0,0,1-2.064,1.488Zm.612-3.513a.9.9,0,0,0-.659-.225.943.943,0,0,0-.691.249,1.05,1.05,0,0,0-.3.691h1.973A1.3,1.3,0,0,0,260.709,153.179Z" transform="translate(-156.075 -110.036)" fill="#522e7b"/>
  <path id="Path_29676" data-name="Path 29676" d="M279.069,152.77c-.45,0-.671.138-.671.395a.4.4,0,0,0,.213.335,2.554,2.554,0,0,0,.845.249,3.062,3.062,0,0,1,1.362.5,1.022,1.022,0,0,1,.351.813,1.318,1.318,0,0,1-.545,1.141,2.475,2.475,0,0,1-1.464.395,2.6,2.6,0,0,1-1.484-.395,1.441,1.441,0,0,1-.6-1.184h1.153a.639.639,0,0,0,.264.553,1.117,1.117,0,0,0,.663.189c.367,0,.592-.071.675-.217a.789.789,0,0,0,.118-.343c0-.154-.1-.28-.3-.395a3.551,3.551,0,0,0-.86-.264,6.832,6.832,0,0,1-1.085-.312.86.86,0,0,1-.525-.908,1.22,1.22,0,0,1,.493-1.058,2.435,2.435,0,0,1,1.413-.351c1.22,0,1.871.466,1.973,1.4h-1.156a.576.576,0,0,0-.233-.454,1.046,1.046,0,0,0-.6-.091Z" transform="translate(-167.719 -109.954)" fill="#522e7b"/>
  <path id="Path_29677" data-name="Path 29677" d="M291.339,156.692a2.151,2.151,0,0,1-1.626-.647,2.53,2.53,0,0,1,0-3.327,2.127,2.127,0,0,1,1.614-.671,1.974,1.974,0,0,1,1.579.671,2.515,2.515,0,0,1,.584,1.717v.225h-3.185c.032.746.395,1.121,1.078,1.121a1.184,1.184,0,0,0,.608-.166.75.75,0,0,0,.355-.395h1.05a1.973,1.973,0,0,1-2.068,1.488Zm.616-3.513a.912.912,0,0,0-.663-.225.951.951,0,0,0-.691.249,1.05,1.05,0,0,0-.3.691h1.973A1.322,1.322,0,0,0,291.955,153.179Z" transform="translate(-174.986 -110.036)" fill="#522e7b"/>
  <path id="Path_29678" data-name="Path 29678" d="M304.872,153.174a1.065,1.065,0,0,0-.908.367,1.618,1.618,0,0,0-.292,1.01v2.021H302.46v-4.409h1.153v.821h.02a1.578,1.578,0,0,1,.568-.687,1.476,1.476,0,0,1,.833-.249.789.789,0,0,1,.272.039v1.125A2.222,2.222,0,0,0,304.872,153.174Z" transform="translate(-183.081 -110.039)" fill="#522e7b"/>
  <path id="Path_29679" data-name="Path 29679" d="M311.727,152.34l.931,3.012h0l.928-3.012h1.2l-1.5,4.409h-1.342l-1.512-4.409Z" transform="translate(-187.911 -110.215)" fill="#522e7b"/>
  <path id="Path_29680" data-name="Path 29680" d="M324.482,148.09V149.1H323.27V148.09Zm0,1.677v4.409H323.27v-4.409Z" transform="translate(-195.677 -107.642)" fill="#522e7b"/>
  <path id="Path_29681" data-name="Path 29681" d="M331.04,152.046a2.289,2.289,0,0,1,1.433.446,1.579,1.579,0,0,1,.632,1.224H331.92a.789.789,0,0,0-.892-.758.861.861,0,0,0-.758.395,1.87,1.87,0,0,0-.272,1.034,1.7,1.7,0,0,0,.268,1.014.813.813,0,0,0,.7.395.924.924,0,0,0,1-.9h1.149a2.049,2.049,0,0,1-.679,1.342,2.281,2.281,0,0,1-1.484.47,2.064,2.064,0,0,1-1.551-.628,2.277,2.277,0,0,1-.616-1.666,2.427,2.427,0,0,1,.6-1.7A2.124,2.124,0,0,1,331.04,152.046Z" transform="translate(-199.015 -110.035)" fill="#522e7b"/>
  <path id="Path_29682" data-name="Path 29682" d="M343.683,156.692a2.167,2.167,0,0,1-1.63-.647,2.278,2.278,0,0,1-.616-1.65,2.313,2.313,0,0,1,.628-1.677,2.127,2.127,0,0,1,1.614-.671,1.973,1.973,0,0,1,1.579.671,2.534,2.534,0,0,1,.584,1.717v.225h-3.185c.036.746.395,1.121,1.081,1.121a1.184,1.184,0,0,0,.608-.166.726.726,0,0,0,.351-.395h1.066a1.974,1.974,0,0,1-2.064,1.488Zm.612-3.513a.9.9,0,0,0-.659-.225.959.959,0,0,0-.695.249,1.07,1.07,0,0,0-.3.691h1.973A1.267,1.267,0,0,0,344.295,153.179Z" transform="translate(-206.672 -110.036)" fill="#522e7b"/>
  <path id="Path_29683" data-name="Path 29683" d="M356.235,152.77c-.446,0-.671.138-.671.395a.4.4,0,0,0,.213.335,2.589,2.589,0,0,0,.845.249,3.063,3.063,0,0,1,1.366.5,1.034,1.034,0,0,1,.351.813,1.31,1.31,0,0,1-.549,1.141,2.463,2.463,0,0,1-1.46.395,2.6,2.6,0,0,1-1.484-.395,1.429,1.429,0,0,1-.6-1.184H355.4a.644.644,0,0,0,.268.553,1.116,1.116,0,0,0,.663.189c.367,0,.592-.071.671-.217a.734.734,0,0,0,.122-.343c0-.154-.1-.28-.3-.395a3.614,3.614,0,0,0-.861-.264,6.712,6.712,0,0,1-1.085-.312.864.864,0,0,1-.529-.908,1.216,1.216,0,0,1,.5-1.058,2.436,2.436,0,0,1,1.413-.351c1.216,0,1.871.466,1.973,1.4H357.08a.576.576,0,0,0-.229-.454A1.061,1.061,0,0,0,356.235,152.77Z" transform="translate(-214.429 -109.954)" fill="#522e7b"/>
  <path id="Path_29684" data-name="Path 29684" d="M374.273,148.087h.335l.308.024v.9c-.166,0-.32-.024-.47-.024a.438.438,0,0,0-.332.111.7.7,0,0,0-.1.454v.2h.837v.813h-.821v3.6h-1.212v-3.584h-.726v-.813h.726v-.3a1.283,1.283,0,0,1,.395-1.026A1.578,1.578,0,0,1,374.273,148.087Z" transform="translate(-225.228 -107.64)" fill="#522e7b"/>
  <path id="Path_29685" data-name="Path 29685" d="M382.759,152.045a2.2,2.2,0,0,1,1.666.635,2.309,2.309,0,0,1,.624,1.689,2.273,2.273,0,0,1-.632,1.685,2.242,2.242,0,0,1-1.658.635,2.218,2.218,0,0,1-1.65-.635,2.6,2.6,0,0,1,0-3.371A2.195,2.195,0,0,1,382.759,152.045Zm-.789,1.259a2.12,2.12,0,0,0,0,2.119.971.971,0,0,0,.789.355.928.928,0,0,0,.789-.367,1.7,1.7,0,0,0,.276-1.042q0-1.022-.395-1.22a1.646,1.646,0,0,0-.679-.193.951.951,0,0,0-.77.347Z" transform="translate(-230.311 -110.035)" fill="#522e7b"/>
  <path id="Path_29686" data-name="Path 29686" d="M396.848,153.174a1.058,1.058,0,0,0-.9.367,1.579,1.579,0,0,0-.292,1.01v2.021H394.44v-4.409h1.153v.821h0a1.554,1.554,0,0,1,.572-.687,1.464,1.464,0,0,1,.833-.249.788.788,0,0,1,.268.039v1.125a2.221,2.221,0,0,0-.418-.039Z" transform="translate(-238.756 -110.039)" fill="#522e7b"/>
  <path id="Path_29687" data-name="Path 29687" d="M412.3,154.3a1.5,1.5,0,0,1-1.441-.683h0v.56H409.71V148.09h1.212V150.3h.02a1.382,1.382,0,0,1,.561-.474,1.843,1.843,0,0,1,.821-.178,1.622,1.622,0,0,1,1.3.624,2.531,2.531,0,0,1,.525,1.689,2.578,2.578,0,0,1-.525,1.7A1.63,1.63,0,0,1,412.3,154.3Zm.343-1.295a1.705,1.705,0,0,0,.28-1.022,1.823,1.823,0,0,0-.272-1.026.852.852,0,0,0-.75-.395.892.892,0,0,0-.762.395,1.646,1.646,0,0,0-.28,1.022,1.73,1.73,0,0,0,.28,1.034.864.864,0,0,0,.746.395A.892.892,0,0,0,412.647,153Z" transform="translate(-248 -107.642)" fill="#522e7b"/>
  <path id="Path_29688" data-name="Path 29688" d="M426.226,156.154a1.6,1.6,0,0,1-1.456.7,3.106,3.106,0,0,1-.9-.2c-.395-.134-.6-.659-.6-1.579V152.31h1.212v2.562c0,.529.095.841.284.928a1.208,1.208,0,0,0,.493.13.821.821,0,0,0,.718-.308,1.623,1.623,0,0,0,.217-.928v-2.368h1.212v4.409h-1.152v-.576Z" transform="translate(-256.208 -110.197)" fill="#522e7b"/>
  <path id="Path_29689" data-name="Path 29689" d="M437.955,152.77c-.446,0-.667.138-.667.395a.4.4,0,0,0,.209.335,2.589,2.589,0,0,0,.845.249,3.062,3.062,0,0,1,1.366.5,1.034,1.034,0,0,1,.351.813,1.31,1.31,0,0,1-.549,1.141,2.463,2.463,0,0,1-1.46.395,2.6,2.6,0,0,1-1.484-.395,1.441,1.441,0,0,1-.6-1.184h1.153a.643.643,0,0,0,.268.553,1.117,1.117,0,0,0,.663.189c.367,0,.592-.071.671-.217a.734.734,0,0,0,.122-.343c0-.154-.1-.28-.3-.395a3.617,3.617,0,0,0-.86-.264,6.829,6.829,0,0,1-1.086-.312.86.86,0,0,1-.525-.908,1.212,1.212,0,0,1,.493-1.058,2.435,2.435,0,0,1,1.413-.351c1.216,0,1.871.466,1.974,1.4H438.8a.564.564,0,0,0-.229-.454A1.062,1.062,0,0,0,437.955,152.77Z" transform="translate(-263.895 -109.954)" fill="#522e7b"/>
  <path id="Path_29690" data-name="Path 29690" d="M449.8,148.09V149.1H448.59V148.09Zm0,1.677v4.409H448.59v-4.409Z" transform="translate(-271.534 -107.642)" fill="#522e7b"/>
  <path id="Path_29691" data-name="Path 29691" d="M457.008,152.04a1.6,1.6,0,0,1,1.243.426,1.973,1.973,0,0,1,.395,1.342v2.763h-1.212v-2.577a1.449,1.449,0,0,0-.178-.789.706.706,0,0,0-.635-.264.789.789,0,0,0-.679.3,1.579,1.579,0,0,0-.221.932v2.368H454.51v-4.385h1.156v.588h.024A1.5,1.5,0,0,1,457.008,152.04Z" transform="translate(-275.117 -110.029)" fill="#522e7b"/>
  <path id="Path_29692" data-name="Path 29692" d="M469.4,156.692a2.159,2.159,0,0,1-1.63-.647,2.3,2.3,0,0,1-.62-1.65,2.329,2.329,0,0,1,.628-1.677,2.135,2.135,0,0,1,1.618-.671,1.974,1.974,0,0,1,1.579.671,2.515,2.515,0,0,1,.584,1.717v.225h-3.185c.036.746.395,1.121,1.078,1.121a1.183,1.183,0,0,0,.608-.166.75.75,0,0,0,.355-.395h1.066a2.151,2.151,0,0,1-.758,1.121A2.179,2.179,0,0,1,469.4,156.692Zm.612-3.513a.912.912,0,0,0-.663-.225.955.955,0,0,0-.679.257,1.05,1.05,0,0,0-.3.691h1.973A1.3,1.3,0,0,0,470.009,153.179Z" transform="translate(-282.766 -110.036)" fill="#522e7b"/>
  <path id="Path_29693" data-name="Path 29693" d="M481.955,152.77c-.446,0-.671.138-.671.395a.4.4,0,0,0,.213.336,2.554,2.554,0,0,0,.845.249,3.106,3.106,0,0,1,1.366.5,1.034,1.034,0,0,1,.351.813,1.322,1.322,0,0,1-.549,1.141,2.475,2.475,0,0,1-1.464.395,2.573,2.573,0,0,1-1.48-.395,1.421,1.421,0,0,1-.6-1.184h1.152a.64.64,0,0,0,.264.553,1.117,1.117,0,0,0,.663.189c.371,0,.6-.071.675-.217a.79.79,0,0,0,.122-.343c0-.154-.1-.28-.3-.395a3.657,3.657,0,0,0-.864-.264,6.668,6.668,0,0,1-1.081-.312.864.864,0,0,1-.529-.908,1.216,1.216,0,0,1,.5-1.058,2.412,2.412,0,0,1,1.409-.351c1.22,0,1.871.466,1.973,1.4h-1.168a.568.568,0,0,0-.233-.454A1.046,1.046,0,0,0,481.955,152.77Z" transform="translate(-290.528 -109.953)" fill="#522e7b"/>
  <path id="Path_29694" data-name="Path 29694" d="M493.955,152.77c-.446,0-.671.138-.671.395a.4.4,0,0,0,.213.335,2.589,2.589,0,0,0,.845.249,3.063,3.063,0,0,1,1.366.5,1.034,1.034,0,0,1,.351.813,1.311,1.311,0,0,1-.549,1.141,2.463,2.463,0,0,1-1.46.395,2.6,2.6,0,0,1-1.484-.395,1.429,1.429,0,0,1-.6-1.184h1.153a.644.644,0,0,0,.268.553,1.118,1.118,0,0,0,.663.189c.367,0,.592-.071.671-.217a.735.735,0,0,0,.122-.343c0-.154-.1-.28-.3-.395a3.616,3.616,0,0,0-.86-.264,6.707,6.707,0,0,1-1.086-.312.865.865,0,0,1-.529-.908,1.216,1.216,0,0,1,.5-1.058,2.435,2.435,0,0,1,1.413-.351c1.216,0,1.871.466,1.974,1.4H494.8a.576.576,0,0,0-.229-.454A1.062,1.062,0,0,0,493.955,152.77Z" transform="translate(-297.793 -109.954)" fill="#522e7b"/>
  <path id="Path_29695" data-name="Path 29695" d="M507.15,152.037a1.267,1.267,0,0,1,1.283.7,1.579,1.579,0,0,1,1.334-.7c.789,0,1.259.193,1.4.584a2.98,2.98,0,0,1,.213.951v2.988h-1.212v-2.569a1.349,1.349,0,0,0-.178-.825.683.683,0,0,0-.564-.209c-.541,0-.813.363-.813,1.089v2.522H507.4v-2.743a1.058,1.058,0,0,0-.166-.655.643.643,0,0,0-.537-.213.766.766,0,0,0-.608.268,1.069,1.069,0,0,0-.237.73v2.613H504.64v-4.417h1.149v.572h0A1.579,1.579,0,0,1,507.15,152.037Z" transform="translate(-305.461 -110.026)" fill="#522e7b"/>
  <path id="Path_29696" data-name="Path 29696" d="M526.235,156.692a2.159,2.159,0,0,1-1.63-.647,2.3,2.3,0,0,1-.608-1.65,2.333,2.333,0,0,1,.631-1.677,2.12,2.12,0,0,1,1.614-.671,1.974,1.974,0,0,1,1.579.671,2.535,2.535,0,0,1,.58,1.717v.225h-3.221c.036.746.395,1.121,1.078,1.121a1.184,1.184,0,0,0,.608-.166.734.734,0,0,0,.355-.395h1.066a2.152,2.152,0,0,1-.758,1.121A2.179,2.179,0,0,1,526.235,156.692Zm.612-3.513a.912.912,0,0,0-.663-.225.955.955,0,0,0-.691.249,1.069,1.069,0,0,0-.3.691h1.973A1.294,1.294,0,0,0,526.847,153.179Z" transform="translate(-317.178 -110.036)" fill="#522e7b"/>
  <path id="Path_29697" data-name="Path 29697" d="M539.865,152.04a1.6,1.6,0,0,1,1.243.426,1.974,1.974,0,0,1,.395,1.342v2.763h-1.212v-2.577a1.45,1.45,0,0,0-.178-.789.7.7,0,0,0-.635-.264.789.789,0,0,0-.679.3,1.6,1.6,0,0,0-.217.932v2.368H537.37v-4.385h1.152v.588h.024A1.5,1.5,0,0,1,539.865,152.04Z" transform="translate(-325.273 -110.029)" fill="#522e7b"/>
</svg>
