<svg id="Group_27047" data-name="Group 27047" xmlns="http://www.w3.org/2000/svg" width="162.422" height="205.095" viewBox="0 0 162.422 205.095">
    <path id="Path_29534" data-name="Path 29534" d="M100.746,292.533q-23.618,0-47.23.028c-2.47,0-4.2.214-2.588-3.3,18.424-40.328,47.055-70.171,89.131-86.283,10.393-3.948,10.365-3.863,14.758,6.344,9.728,22.614,19.422,45.245,29.4,67.752,1.635,3.677.564,4.94-2.577,6.35-10.6,4.726-21.757,6.982-33.239,7.923C132.547,292.669,116.644,292.5,100.746,292.533Z" transform="translate(-48.496 -87.469)" fill="#532f7b"/>
    <path id="Path_29535" data-name="Path 29535" d="M47.2,130.664V119.949c0-38.309.062-76.617-.1-114.926,0-3.981.891-5.075,5-5,15.881.265,31.773.1,47.664.1h4.754C85.533,44.065,66.782,87.455,48.064,130.845Z" transform="translate(-47.1 -0.023)" fill="#532f7b"/>
    <path id="Path_29536" data-name="Path 29536" d="M230.889,73.211C221.7,50.884,211.929,28.8,202.2,6.7c-1.692-3.874-.953-4.359,3.023-4.111,13.05.835,25.817,2.645,37.66,8.623,22.744,11.488,32.043,42.9,19.174,64.972C257.857,83.441,233.861,80.491,230.889,73.211Z" transform="translate(-114.361 -1.118)" fill="#532f7b"/>
    <path id="Path_29537" data-name="Path 29537" d="M119.51,146.162c10.1-23.387,20.2-46.773,30.791-71.282l14.166,32.776c1.382,3.2,2.729,6.423,4.145,9.615.79,1.776.383,2.707-1.568,3.35C149.782,126.266,134.336,135.182,119.51,146.162Z" transform="translate(-78.674 -32.665)" fill="#74358a"/>
    <path id="Path_29538" data-name="Path 29538" d="M295.217,192.844c3.276-.141,5.239,1.461,7.083,3.9,9.237,12.266,11.386,26.24,10.066,41.021-.412,4.653-1.043,9.328-3.491,14.386-8.38-19.36-16.416-38.038-24.577-56.665-1.128-2.526-.434-3.141,1.838-3.028" transform="translate(-150.299 -83.931)" fill="#532f7b"/>
  </svg>
  