<svg xmlns="http://www.w3.org/2000/svg" xmlns:xlink="http://www.w3.org/1999/xlink" width="174.695" height="174.699" viewBox="0 0 174.695 174.699">
  <defs>
    <linearGradient id="linear-gradient" y1="0.5" x2="1" y2="0.5" gradientUnits="objectBoundingBox">
      <stop offset="0" stop-color="#d6e6fd"/>
      <stop offset="1" stop-color="#d2e3fd"/>
    </linearGradient>
  </defs>
  <g id="deal-confirmation" transform="translate(-7.256 -56.164)">
    <path id="Path_29105" data-name="Path 29105" d="M1636.061,1627.732a27.883,27.883,0,0,1-4.957,6.7l-3.319,3.327-2.555,2.546-2.565,2.564-34.958,34.96-15.931,15.939a28.026,28.026,0,0,1-39.628,0l-39.443-39.45-11.45-11.45-2.563-2.563-5.87-5.876a28.015,28.015,0,0,1,0-39.62l15.939-15.931,40.07-40.078,3.319-3.319a28.021,28.021,0,0,1,39.628,0l8.267,8.267,51.06,51.061A28.034,28.034,0,0,1,1636.061,1627.732Z" transform="translate(-1457.359 -1471.107)" fill="#7e2c8e" opacity="0.088"/>
    <path id="Path_29106" data-name="Path 29106" d="M2392.073,1627.768a27.881,27.881,0,0,1-4.957,6.7l-3.319,3.327-2.555,2.546-2.565,2.564-34.958,34.96-15.931,15.94a28.026,28.026,0,0,1-39.628,0c101.929-54.345,19.809-166.491,19.809-166.491a27.936,27.936,0,0,1,19.818,8.208l8.267,8.267,51.061,51.061A28.026,28.026,0,0,1,2392.073,1627.768Z" transform="translate(-2213.372 -1471.143)" fill="#b761c7" opacity="0.312"/>
    <path id="Path_29110" data-name="Path 29110" d="M2716.133,2467.682c-.695-.58-5.273-4.445-9.133-7.332A64.469,64.469,0,0,1,2716.133,2467.682Z" transform="translate(-2597.865 -2327.671)" opacity="0.77" fill="url(#linear-gradient)"/>
    <path id="Path_29112" data-name="Path 29112" d="M2716.133,2467.682c-.695-.58-5.273-4.445-9.133-7.332A64.469,64.469,0,0,1,2716.133,2467.682Z" transform="translate(-2597.865 -2327.671)" opacity="0.77" fill="url(#linear-gradient)"/>
    <g id="Group_26847" data-name="Group 26847" transform="translate(49.964 98.817)">
      <path id="Path_29107" data-name="Path 29107" d="M1500.515,921.792h-39.166c-22.047,0-40.846-18.031-40.649-40.078a39.743,39.743,0,1,1,71.742,23.927Z" transform="translate(-1417.043 -842.311)" fill="#7e2c8e"/>
      <path id="Path_29108" data-name="Path 29108" d="M1500.515,921.792h-39.166c-22.047,0-40.846-18.031-40.649-40.078a39.732,39.732,0,0,1,41.383-39.375C1414.424,889.016,1500.515,921.792,1500.515,921.792Z" transform="translate(-1417.043 -842.311)" fill="#7e2c8e"/>
      <path id="Path_29109" data-name="Path 29109" d="M1604.81,1096.823a4.619,4.619,0,0,1-6.96.043l-9.831-11.12a7.723,7.723,0,0,1,.852-10.889l12.471,14.588,16.245-19.164a7.723,7.723,0,0,1,10.885-.9Z" transform="translate(-1562.068 -1039.728)" fill="#fff"/>
    </g>
  </g>
</svg>
