<svg xmlns="http://www.w3.org/2000/svg" width="34" height="36" viewBox="0 0 34 36">
  <g id="license" transform="translate(-6 -6)">
    <path id="Path_28969" data-name="Path 28969" d="M13,12H7a1,1,0,0,1-1-1V10a4,4,0,0,1,8,0v1A1,1,0,0,1,13,12ZM8,10h4a2,2,0,0,0-4,0Zm2,32a4,4,0,0,1-4-4V37a1,1,0,0,1,1-1h6a1,1,0,0,1,1,1v1A4,4,0,0,1,10,42ZM8,38a2,2,0,0,0,4,0Z" fill="#b69c49"/>
    <path id="Path_28970" data-name="Path 28970" d="M36,42H10a1,1,0,0,1,0-2,2,2,0,0,0,2-2V10a2,2,0,0,0-2-2,1,1,0,0,1,0-2H36a4,4,0,0,1,4,4V38A4,4,0,0,1,36,42ZM13.46,40H36a2,2,0,0,0,2-2V10a2,2,0,0,0-2-2H13.46A4,4,0,0,1,14,10V38a4,4,0,0,1-.54,2Z" fill="#b69c49"/>
    <path id="Path_28971" data-name="Path 28971" d="M34,18H18a1,1,0,0,1-1-1V11a1,1,0,0,1,1-1H34a1,1,0,0,1,1,1v6A1,1,0,0,1,34,18ZM19,16H33V12H19ZM34,30H18a1,1,0,0,1,0-2H34a1,1,0,0,1,0,2Zm0-8H18a1,1,0,0,1,0-2H34a1,1,0,0,1,0,2Zm-5,4H23a1,1,0,0,1,0-2h6a1,1,0,0,1,0,2Zm3,12a3,3,0,1,1,3-3A3,3,0,0,1,32,38Zm0-4a1,1,0,1,0,1,1A1,1,0,0,0,32,34Z" fill="#b69c49"/>
    <circle id="Ellipse_2" data-name="Ellipse 2" cx="1" cy="1" r="1" transform="translate(21 13)" fill="#b69c49"/>
    <circle id="Ellipse_3" data-name="Ellipse 3" cx="1" cy="1" r="1" transform="translate(25 13)" fill="#b69c49"/>
    <circle id="Ellipse_4" data-name="Ellipse 4" cx="1" cy="1" r="1" transform="translate(29 13)" fill="#b69c49"/>
  </g>
</svg>
