<svg id="company" xmlns="http://www.w3.org/2000/svg" width="36.126" height="36.468" viewBox="0 0 36.126 36.468">
  <path id="Path_28972" data-name="Path 28972" d="M85.8,91.4H82.15a1.14,1.14,0,1,0,0,2.279H85.8a1.14,1.14,0,1,0,0-2.279Zm0,4.71H82.15a1.14,1.14,0,1,0,0,2.279H85.8a1.14,1.14,0,1,0,0-2.279Zm0,4.71H82.15a1.14,1.14,0,1,0,0,2.279H85.8a1.14,1.14,0,1,0,0-2.279Zm0,4.71H82.15a1.14,1.14,0,1,0,0,2.279H85.8a1.14,1.14,0,1,0,0-2.279ZM92.178,93.68h3.647a1.14,1.14,0,0,0,0-2.279H92.178a1.14,1.14,0,0,0,0,2.279Zm0,4.71h3.647a1.14,1.14,0,0,0,0-2.279H92.178a1.14,1.14,0,0,0,0,2.279Zm11.209,5.135a3.5,3.5,0,1,0,3.5,3.5A3.508,3.508,0,0,0,103.387,103.525Zm0,4.729a1.225,1.225,0,1,1,1.225-1.225A1.226,1.226,0,0,1,103.387,108.254Z" transform="translate(-76.566 -86.387)" fill="#b69c49"/>
  <path id="Path_28973" data-name="Path 28973" d="M26.821,11.339a9.287,9.287,0,0,0-1.978.216V1.14A1.14,1.14,0,0,0,23.7,0H1.14A1.14,1.14,0,0,0,0,1.14V35.328a1.139,1.139,0,0,0,1.14,1.14H23.7a1.139,1.139,0,0,0,1.14-1.14V34.64c.534.7.928,1.2,1.089,1.4a1.14,1.14,0,0,0,1.778,0c.861-1.073,8.415-10.626,8.415-15.4A9.315,9.315,0,0,0,26.821,11.339ZM14.7,34.188H10.142V25.983H14.7Zm7.863,0H16.98V24.844a1.14,1.14,0,0,0-1.14-1.14H9a1.14,1.14,0,0,0-1.14,1.14v9.345H2.279V2.279H22.564v10.1a9.348,9.348,0,0,0-2.777,2.191,1.128,1.128,0,0,0-.528-.135H15.613a1.14,1.14,0,0,0,0,2.279H18.4a9.214,9.214,0,0,0-.75,2.431H15.613a1.14,1.14,0,0,0,0,2.279H17.58c.406,2.853,2.835,6.92,4.984,10.057v2.707Zm4.257-.714C24.265,30.116,19.8,23.624,19.8,20.643a7.025,7.025,0,0,1,14.05,0c0,2.979-4.47,9.472-7.025,12.832Z" fill="#b69c49"/>
</svg>
