<svg xmlns="http://www.w3.org/2000/svg" width="24.401" height="30.382" viewBox="0 0 24.401 30.382">
  <path id="user" d="M150.4,47.993a6.759,6.759,0,0,1-.055.847c.016-.113.032-.229.045-.341a6.611,6.611,0,0,1-.441,1.626c.042-.1.087-.206.129-.309a6.429,6.429,0,0,1-.831,1.423l.2-.261a6.547,6.547,0,0,1-1.156,1.156l.261-.2a6.558,6.558,0,0,1-1.423.831c.1-.042.206-.087.309-.129a6.61,6.61,0,0,1-1.626.441c.113-.016.229-.032.341-.045a6.484,6.484,0,0,1-1.694,0c.113.016.229.032.341.045a6.61,6.61,0,0,1-1.626-.441c.1.042.206.087.309.129a6.429,6.429,0,0,1-1.423-.831l.261.2a6.546,6.546,0,0,1-1.156-1.156l.2.261a6.557,6.557,0,0,1-.831-1.423c.042.1.087.206.129.309a6.611,6.611,0,0,1-.441-1.626c.016.113.032.229.045.341a6.483,6.483,0,0,1,0-1.694c-.016.113-.032.229-.045.341a6.611,6.611,0,0,1,.441-1.626c-.042.1-.087.206-.129.309a6.429,6.429,0,0,1,.831-1.423l-.2.261a6.547,6.547,0,0,1,1.156-1.156l-.261.2a6.557,6.557,0,0,1,1.423-.831c-.1.042-.206.087-.309.129a6.61,6.61,0,0,1,1.626-.441c-.113.016-.229.032-.341.045a6.483,6.483,0,0,1,1.694,0c-.113-.016-.229-.032-.341-.045a6.61,6.61,0,0,1,1.626.441c-.1-.042-.206-.087-.309-.129a6.43,6.43,0,0,1,1.423.831l-.261-.2a6.547,6.547,0,0,1,1.156,1.156l-.2-.261a6.557,6.557,0,0,1,.831,1.423c-.042-.1-.087-.206-.129-.309a6.611,6.611,0,0,1,.441,1.626c-.016-.113-.032-.229-.045-.341a7.43,7.43,0,0,1,.055.847,1.288,1.288,0,1,0,2.576,0,7.594,7.594,0,0,0-1.378-4.376,8.837,8.837,0,0,0-.8-.969,8.207,8.207,0,0,0-.95-.818,7.577,7.577,0,0,0-2.009-1.069,7.684,7.684,0,0,0-8.382,2.28,8.466,8.466,0,0,0-.747,1.037,7.921,7.921,0,0,0-.547,1.143,7.645,7.645,0,0,0,3.861,9.7,7.165,7.165,0,0,0,2.518.7,7.63,7.63,0,0,0,8.3-6.3,8.635,8.635,0,0,0,.119-1.32,1.285,1.285,0,0,0-2.57-.01Zm4.273,20.135H138.15c-.731,0-1.462.006-2.193,0a1.931,1.931,0,0,1-.238-.016c.113.016.229.032.341.045a1.621,1.621,0,0,1-.37-.1c.1.042.206.087.309.129a1.633,1.633,0,0,1-.361-.213l.261.2a1.86,1.86,0,0,1-.264-.264l.2.261a1.768,1.768,0,0,1-.213-.361c.042.1.087.206.129.309a1.861,1.861,0,0,1-.1-.37c.016.113.032.229.045.341a9.239,9.239,0,0,1-.016-1.195V65.516a7.822,7.822,0,0,1,.064-1.027c-.016.113-.032.229-.045.341a7.531,7.531,0,0,1,.525-1.922c-.042.1-.087.206-.129.309a7.572,7.572,0,0,1,.963-1.642l-.2.261a7.643,7.643,0,0,1,1.34-1.34l-.261.2a7.572,7.572,0,0,1,1.642-.963c-.1.042-.206.087-.309.129a7.629,7.629,0,0,1,1.922-.525c-.113.016-.229.032-.341.045a11.155,11.155,0,0,1,1.43-.064h5.893a12.517,12.517,0,0,1,1.591.064c-.113-.016-.229-.032-.341-.045a7.532,7.532,0,0,1,1.922.525c-.1-.042-.206-.087-.309-.129a7.572,7.572,0,0,1,1.642.963l-.261-.2a7.643,7.643,0,0,1,1.34,1.34l-.2-.261a7.572,7.572,0,0,1,.963,1.642c-.042-.1-.087-.206-.129-.309a7.63,7.63,0,0,1,.525,1.922c-.016-.113-.032-.229-.045-.341a11.613,11.613,0,0,1,.064,1.459v1.594a4.42,4.42,0,0,1-.016.547c.016-.113.032-.229.045-.341a1.62,1.62,0,0,1-.1.37c.042-.1.087-.206.129-.309a1.634,1.634,0,0,1-.213.361l.2-.261a1.861,1.861,0,0,1-.264.264l.261-.2a1.769,1.769,0,0,1-.361.213c.1-.042.206-.087.309-.129a1.86,1.86,0,0,1-.37.1c.113-.016.229-.032.341-.045-.071.01-.145.013-.219.016a1.344,1.344,0,0,0-.911.377,1.289,1.289,0,0,0,.911,2.2,2.886,2.886,0,0,0,2.721-2.038,5.062,5.062,0,0,0,.113-1.478,19.329,19.329,0,0,0-.158-3.342,8.72,8.72,0,0,0-6.443-6.833,11.442,11.442,0,0,0-2.769-.261h-5.712a10.923,10.923,0,0,0-2.837.293,8.723,8.723,0,0,0-6.337,6.91,21,21,0,0,0-.138,3.307,4.278,4.278,0,0,0,.155,1.526,3.014,3.014,0,0,0,1.175,1.488,2.843,2.843,0,0,0,1.5.431c.251,0,.5,0,.753,0h17.981a1.29,1.29,0,1,0,0-2.579Z" transform="translate(-133.108 -40.327)" fill="#7E2C8E"/>
</svg>
