<svg id="Component_11_1" data-name="Component 11 – 1" xmlns="http://www.w3.org/2000/svg" width="39" height="46" viewBox="0 0 39 46">
  <g id="office" transform="translate(-7 3.427)">
    <path id="Path_28974" data-name="Path 28974" d="M19.72,42.573H38.093a.945.945,0,0,0,.942-.942V3.942A.945.945,0,0,0,38.093,3H7.942A.945.945,0,0,0,7,3.942V41.63a.945.945,0,0,0,.942.942Zm5.653-1.884H20.662v-6.6h4.711ZM8.884,4.884H37.151v35.8H27.257V33.151a.945.945,0,0,0-.942-.942h-6.6a.945.945,0,0,0-.942.942v7.538H8.884Z" transform="translate(0 0)" fill="#7E2C8E"/>
    <path id="Path_28975" data-name="Path 28975" d="M16.711,8H12.942A.945.945,0,0,0,12,8.942v3.769a.945.945,0,0,0,.942.942h3.769a.945.945,0,0,0,.942-.942V8.942A.945.945,0,0,0,16.711,8Zm-.942,3.769H13.884V9.884h1.884Zm5.653,1.884h3.769a.945.945,0,0,0,.942-.942V8.942A.945.945,0,0,0,25.191,8H21.422a.945.945,0,0,0-.942.942v3.769A.945.945,0,0,0,21.422,13.653Zm.942-3.769h1.884v1.884H22.364ZM29.9,13.653h3.769a.945.945,0,0,0,.942-.942V8.942A.945.945,0,0,0,33.671,8H29.9a.945.945,0,0,0-.942.942v3.769A.945.945,0,0,0,29.9,13.653Zm.942-3.769h1.884v1.884H30.844ZM16.711,15.538H12.942A.945.945,0,0,0,12,16.48v3.769a.945.945,0,0,0,.942.942h3.769a.945.945,0,0,0,.942-.942V16.48A.945.945,0,0,0,16.711,15.538Zm-.942,3.769H13.884V17.422h1.884Zm5.653,1.884h3.769a.945.945,0,0,0,.942-.942V16.48a.945.945,0,0,0-.942-.942H21.422a.945.945,0,0,0-.942.942v3.769A.945.945,0,0,0,21.422,21.191Zm.942-3.769h1.884v1.884H22.364ZM29.9,21.191h3.769a.945.945,0,0,0,.942-.942V16.48a.945.945,0,0,0-.942-.942H29.9a.945.945,0,0,0-.942.942v3.769A.945.945,0,0,0,29.9,21.191Zm.942-3.769h1.884v1.884H30.844ZM16.711,23.075H12.942a.945.945,0,0,0-.942.942v3.769a.945.945,0,0,0,.942.942h3.769a.945.945,0,0,0,.942-.942V24.017A.945.945,0,0,0,16.711,23.075Zm-.942,3.769H13.884V24.96h1.884Zm5.653,1.884h3.769a.945.945,0,0,0,.942-.942V24.017a.945.945,0,0,0-.942-.942H21.422a.945.945,0,0,0-.942.942v3.769A.945.945,0,0,0,21.422,28.729Zm.942-3.769h1.884v1.884H22.364ZM29.9,28.729h3.769a.945.945,0,0,0,.942-.942V24.017a.945.945,0,0,0-.942-.942H29.9a.945.945,0,0,0-.942.942v3.769A.945.945,0,0,0,29.9,28.729Zm.942-3.769h1.884v1.884H30.844Z" transform="translate(-0.289 -0.289)" fill="#7E2C8E"/>
    <g id="Ellipse_6" data-name="Ellipse 6" transform="translate(23 -3.427)" fill="#fff" stroke="#7E2C8E" stroke-width="2">
      <circle cx="11.5" cy="11.5" r="11.5" stroke="none"/>
      <circle cx="11.5" cy="11.5" r="10.5" fill="none"/>
    </g>
  </g>
  <path id="delete" d="M13.443,6.808l-.157,4.758a1.567,1.567,0,0,1-1.572,1.516H8.727a1.567,1.567,0,0,1-1.572-1.514L7,6.808a.393.393,0,0,1,.786-.026l.157,4.759a.786.786,0,0,0,.786.756h2.987a.786.786,0,0,0,.786-.757l.157-4.758a.393.393,0,0,1,.786.026Zm.52-1.583a.393.393,0,0,1-.393.393h-6.7a.393.393,0,0,1,0-.786H8.089a.5.5,0,0,0,.5-.451A1.175,1.175,0,0,1,9.762,3.322h.916a1.175,1.175,0,0,1,1.173,1.059.5.5,0,0,0,.5.451h1.218a.393.393,0,0,1,.393.393ZM9.272,4.832h1.9a1.3,1.3,0,0,1-.1-.371.393.393,0,0,0-.391-.354H9.763a.393.393,0,0,0-.391.354,1.3,1.3,0,0,1-.1.371Zm.4,5.954V7.44a.393.393,0,1,0-.786,0v3.348a.393.393,0,0,0,.786,0Zm1.892,0V7.44a.393.393,0,1,0-.786,0v3.348a.393.393,0,0,0,.786,0Z" transform="translate(17.521 3.678)" fill="#7E2C8E"/>
</svg>
