<svg xmlns="http://www.w3.org/2000/svg" width="32.25" height="32.249" viewBox="0 0 32.25 32.249">
  <path id="bank" d="M17.075,1106.231a1,1,0,0,0-.5.185L2.458,1116.5a1.008,1.008,0,0,0,.587,1.827H4.053v14.107H2.037a1.008,1.008,0,0,0-1.008,1.008v4.03a1.008,1.008,0,0,0,1.008,1.008H32.271a1.008,1.008,0,0,0,1-.851,1,1,0,0,0,.013-.157v-4.03a1.008,1.008,0,0,0-1.008-1.008H30.2v-14.107h1.062a1.008,1.008,0,0,0,.587-1.827l-14.109-10.081a1.008,1.008,0,0,0-.666-.185Zm.08,2.248,10.96,7.828H6.19Zm0,2.99a1.008,1.008,0,1,0,1.008,1.008,1.009,1.009,0,0,0-1.008-1.008ZM6.07,1118.323H8.026v14.107H6.07v-14.107Zm3.972,0h4.144v14.107H10.042Zm6.16,0h1.96v14.107H16.2Zm3.976,0h4.03v14.107h-4.03v-14.107Zm6.046,0h1.956v14.107H26.225Zm-23.18,16.121H31.263v2.016H3.045v-2.014Z" transform="translate(-1.029 -1106.228)" fill="#b69c49"/>
</svg>
