<svg xmlns="http://www.w3.org/2000/svg" width="33.361" height="31.718" viewBox="0 0 33.361 31.718">
  <path id="office-bag" d="M29.932,9.072H25V7.429A4.929,4.929,0,0,0,20.074,2.5H16.788a4.929,4.929,0,0,0-4.929,4.929V9.072H6.929A4.929,4.929,0,0,0,2,14V28.789a4.929,4.929,0,0,0,4.929,4.929h23a4.929,4.929,0,0,0,4.929-4.929V14A4.929,4.929,0,0,0,29.932,9.072ZM15.145,7.429a1.643,1.643,0,0,1,1.643-1.643h3.286a1.643,1.643,0,0,1,1.643,1.643V9.072H15.145Zm16.431,21.36a1.643,1.643,0,0,1-1.643,1.643h-23a1.643,1.643,0,0,1-1.643-1.643v-8.3h4.929v1.725a1.643,1.643,0,0,0,3.286,0V20.492H23.36v1.725a1.643,1.643,0,0,0,3.286,0V20.492h4.929Zm0-11.5H5.286V14a1.643,1.643,0,0,1,1.643-1.643h23A1.643,1.643,0,0,1,31.575,14Z" transform="translate(-1.75 -2.25)" fill="#7E2C8E" stroke="#f6f4ed" stroke-width="0.5"/>
</svg>
